<svg width="477" height="359" viewBox="0 0 477 359" fill="none" xmlns="http://www.w3.org/2000/svg">
<path fill-rule="evenodd" clip-rule="evenodd" d="M89.0459 19.1829C91.7117 19.3348 96.0732 19.3348 98.7381 19.1829C101.404 19.0317 99.2227 18.9076 93.892 18.9076C88.5613 18.9076 86.3809 19.0317 89.0459 19.1829ZM77.6091 20.5056C73.3941 21.692 68.3045 23.8033 68.3045 24.3655C68.3045 24.5903 69.2637 24.381 70.4368 23.901C71.61 23.4218 75.186 22.2278 78.3845 21.2485C84.4146 19.4015 83.7594 18.7742 77.6091 20.5056ZM104.956 19.9218C105.71 20.1187 106.757 20.1056 107.282 19.8931C107.807 19.6806 107.19 19.5201 105.91 19.5356C104.631 19.5512 104.201 19.7248 104.956 19.9218ZM109.608 20.6972C110.363 20.8941 111.409 20.8809 111.934 20.6685C112.459 20.456 111.842 20.2955 110.563 20.311C109.283 20.3265 108.854 20.5002 109.608 20.6972ZM101.452 21.4485C101.985 21.6641 102.858 21.6641 103.39 21.4485C103.924 21.2337 103.487 21.0577 102.421 21.0577C101.355 21.0577 100.919 21.2337 101.452 21.4485ZM114.827 21.4873C118.195 22.0797 133.38 27.8655 139.022 30.7073C145.052 33.7437 148.168 35.0347 148.168 34.4966C148.168 34.0523 130.43 25.5875 129.5 25.5875C129.128 25.5875 126.19 24.5407 122.969 23.2613C119.748 21.982 116.162 20.9825 115.001 21.0407C112.917 21.1453 112.914 21.1508 114.827 21.4873ZM219.503 22.8085C209.699 25.199 206.285 26.3644 200.361 29.3426C190.254 34.4245 179.888 42.3062 178.799 45.738C178.342 47.1786 178.255 47.1771 174.76 45.6791C172.795 44.837 170.83 44.2671 170.393 44.4129C169.956 44.5586 171.731 45.4759 174.338 46.4506C179.837 48.5069 182.518 50.8384 180.703 51.986C179.081 53.0118 177.55 52.8901 176.143 51.6239C175.47 51.0175 173.174 49.8204 171.042 48.962C164.449 46.3095 157.076 42.1604 157.279 41.2175C157.385 40.7236 157.211 40.3739 156.891 40.4406C156.307 40.5631 148.209 37.1073 145.614 35.6286C139.306 32.034 135.897 30.5049 134.441 30.6181C133.501 30.691 132.869 30.5305 133.035 30.2622C133.201 29.9932 131.702 29.3326 129.704 28.7944C125.055 27.5414 117.804 25.4502 116.649 25.03C116.159 24.8516 115.81 25.3401 115.874 26.1155C115.976 27.3445 115.393 27.5135 111.338 27.4305C108.779 27.3778 103.72 26.9188 100.095 26.4102C96.1879 25.862 90.8207 25.6953 86.9136 26C80.3291 26.5141 69.7088 29.5163 69.2133 31.0035C69.0691 31.4362 68.4565 31.7905 67.8525 31.7905C67.2477 31.7905 66.7538 32.1053 66.7538 32.4899C66.7538 32.8745 65.707 33.5545 64.4277 34.0003C63.1483 34.4462 62.1015 35.3526 62.1015 36.0148C62.1015 36.6785 61.4432 37.2181 60.6337 37.2181C59.8266 37.2181 58.9783 37.7066 58.7496 38.3029C58.5208 38.8999 57.0879 39.7994 55.5651 40.3018C52.8916 41.1842 51.7797 42.638 53.7662 42.6535C54.2997 42.6574 52.9645 43.4855 50.8004 44.4935C47.222 46.1598 44.0693 48.3115 36.628 54.1687C32.6806 57.2748 26.8521 64.972 22.9674 72.2078C19.0541 79.4972 18.1671 79.2731 21.8168 71.9171C31.7548 51.8875 43.9406 38.5603 61.7441 28.2524C65.1395 26.2861 67.0446 24.9191 65.9784 25.2137C61.0974 26.5629 47.8904 36.0419 40.3731 43.5902C36.1186 47.8633 32.6372 51.841 32.6372 52.4303C32.6372 53.0188 32.3247 53.5011 31.9424 53.5011C31.5594 53.5011 29.6163 56.2048 27.6228 59.5103C25.6301 62.8157 23.673 66.0428 23.2737 66.6825C21.8889 68.9055 19.5503 74.0796 17.5219 79.4127C12.9736 91.3682 12.7689 117.358 17.1296 129.318C19.2037 135.005 19.9768 135.329 18.3027 129.81C17.6669 127.714 17.1691 125.476 17.1971 124.836C17.225 124.196 17.9158 125.938 18.7323 128.708C19.548 131.477 20.0187 134.364 19.7775 135.123C19.3324 136.525 23.5032 145.823 27.163 151.586C30.1815 156.34 36.3636 163.648 40.2816 167.094C42.2216 168.8 43.5421 169.76 43.2172 169.226C42.8892 168.689 42.9916 168.257 43.4467 168.257C43.898 168.257 44.2678 168.715 44.2678 169.275C44.2678 170.906 48.2959 174.271 51.2462 175.104C52.7388 175.526 53.4367 175.904 52.797 175.944C52.1573 175.984 52.8109 176.734 54.2493 177.611C55.6876 178.488 57.3446 179.021 57.9315 178.796C58.5177 178.57 59.7839 178.734 60.7438 179.159L62.4892 179.931L60.7446 179.595C58.137 179.091 58.6208 179.672 62.2954 181.458C64.2586 182.412 64.982 182.574 64.0857 181.861C62.3411 180.472 63.3902 180.307 66.4832 181.483C68.134 182.111 68.3852 182.46 67.5563 182.972C66.8841 183.388 68.3666 183.616 71.4596 183.575C74.2021 183.537 81.3309 184.414 87.3013 185.525C106.465 189.087 147.278 193.082 182.091 194.804C198.508 195.615 202.559 196.195 198.762 197.187C197.959 197.397 198.311 197.578 199.62 197.631C201.262 197.698 201.723 197.429 201.402 196.592C201.043 195.657 201.295 195.611 202.868 196.328C206.989 198.205 219.638 193.77 226.043 188.202C232.548 182.546 235.534 177.479 237.4 168.932C239.151 160.91 238.779 155.746 236.038 150.009C234.597 146.991 232.182 145.11 233.22 147.813C233.695 149.053 233.618 149.083 232.53 148.072C231.857 147.446 231.619 146.736 232.003 146.495C233.291 145.687 229.249 142.87 222.711 140.022C217.863 137.911 215.969 137.412 215.207 138.044C214.456 138.667 213.532 138.552 211.706 137.607L209.226 136.325L213.589 132.131C215.989 129.825 217.952 127.39 217.952 126.72C217.952 125.275 219.886 123.15 220.574 123.839C220.838 124.103 221.054 123.563 221.054 122.639C221.054 121.715 221.424 120.959 221.875 120.959C222.326 120.959 222.503 120.646 222.267 120.265C222.031 119.883 222.381 119.362 223.046 119.107C223.751 118.837 224.02 118.238 223.693 117.669C223.384 117.133 223.413 116.949 223.759 117.262C224.598 118.022 227.359 114.773 226.734 113.76C226.463 113.323 226.618 113.198 227.079 113.483C227.538 113.767 228.075 113.384 228.271 112.633C228.543 111.593 228.65 111.684 228.718 113.011C228.767 113.971 228.459 114.756 228.032 114.756C227.606 114.756 227.257 115.411 227.257 116.212C227.257 117.012 226.734 118.102 226.094 118.633C225.454 119.164 224.931 120.13 224.931 120.781C224.931 121.795 226.116 121.899 233.266 121.512C239.628 121.168 240.959 121.25 238.89 121.857C237.399 122.295 233.3 122.534 229.779 122.387C226.26 122.241 223.38 122.39 223.38 122.719C223.38 123.047 222.483 124.737 221.386 126.475C220.289 128.213 219.533 129.776 219.706 129.949C219.878 130.122 220.865 128.955 221.898 127.355L223.777 124.448L230.751 123.934C238.629 123.354 242.244 122.78 244.161 121.803C244.885 121.433 246.874 120.481 248.58 119.688C250.286 118.894 253.077 117.039 254.783 115.565C257.805 112.952 264.475 103.688 264.475 102.102C264.475 101.666 263.396 102.938 262.076 104.931C260.756 106.923 259.554 108.553 259.404 108.553C259.254 108.553 259.848 106.546 260.725 104.094C261.873 100.886 262.344 97.5705 262.403 92.27C262.507 83.0748 261.944 75.2279 261.18 75.2186C260.86 75.2148 260.598 74.5138 260.598 73.6609C260.598 72.808 260.968 72.1102 261.419 72.1102C261.871 72.1102 262.025 72.4591 261.761 72.8855C261.481 73.3384 262.187 73.6237 263.46 73.571C264.975 73.5082 265.19 73.3663 264.169 73.105C262.988 72.8026 262.912 72.594 263.781 72.0435C264.585 71.534 264.394 71.3557 263.035 71.3464C261.485 71.3363 261.278 71.0456 261.68 69.4436C261.941 68.4038 261.805 67.3361 261.377 67.0717C260.949 66.8073 260.593 65.8265 260.587 64.8922C260.577 63.5112 260.434 63.4112 259.823 64.3564C259.044 65.5621 258.82 65.0705 258.938 62.4179C258.977 61.565 258.813 61.3037 258.575 61.8364C258.337 62.3699 257.808 62.8056 257.398 62.8056C256.989 62.8056 256.724 62.3699 256.81 61.8364C257.027 60.488 255.926 58.1533 255.073 58.1533C254.684 58.1533 254.575 58.9877 254.831 60.0073C255.097 61.0657 254.909 62.1 254.395 62.4179C253.82 62.7738 253.549 62.4536 253.646 61.5332C253.909 59.0435 253.457 54.5982 253.086 56.0211C252.89 56.7677 252.365 57.378 251.917 57.378C251.445 57.378 251.55 57.9471 252.168 58.7349C253.132 59.9646 253.105 59.9918 251.875 59.028C251.129 58.4426 250.518 57.3291 250.518 56.5537C250.518 55.7776 250.115 54.8944 249.623 54.5905C249.028 54.2222 248.928 54.4021 249.324 55.1255C249.652 55.7249 248.398 54.7541 246.536 52.9692C237.504 44.3067 233.926 41.9448 221.442 36.4094C218.727 35.2053 218.244 35.1293 209.036 34.457C201.338 33.8956 194.142 35.2425 189.457 38.1215C185.202 40.7376 186.662 39.0418 191.783 35.4208C198.294 30.8166 206.859 26.9041 214.851 24.8834C224.294 22.496 229.123 22.1704 235.398 23.4978C241.35 24.757 243.092 24.6423 238.379 23.3017C233.509 21.9168 224.163 21.6718 219.503 22.8085ZM113.664 24.8121C113.928 25.2386 114.297 25.5875 114.485 25.5875C114.674 25.5875 114.827 25.2386 114.827 24.8121C114.827 24.3856 114.457 24.0367 114.006 24.0367C113.555 24.0367 113.401 24.3856 113.664 24.8121ZM245.091 26.1411C245.73 26.3784 246.952 26.8932 247.805 27.2856C249.33 27.988 249.331 27.9795 247.85 26.7932C247.022 26.1302 245.801 25.6154 245.136 25.6487C244.092 25.7015 244.086 25.7689 245.091 26.1411ZM133.436 33.5281C133.436 34.4625 133.004 34.2329 131.424 32.4558C129.953 30.8011 129.953 30.7996 131.692 31.8673C132.652 32.4565 133.436 33.204 133.436 33.5281ZM140.109 37.778C144.647 41.2284 150.281 46.5227 149.414 46.5227C149.074 46.5227 145.678 43.9058 141.865 40.7073C134.649 34.6524 133.517 32.7644 140.109 37.778ZM148.944 35.0828C149.57 35.7023 156.698 38.7123 156.698 38.3572C156.698 38.1796 155.738 37.5454 154.565 36.9483C152.243 35.7674 148.319 34.4648 148.944 35.0828ZM113.858 36.4342C115.244 36.4389 116.378 36.7568 116.378 37.1406C116.378 37.7981 117.892 39.5171 124.982 46.9104C127.781 49.8297 127.969 50.3298 128.176 55.4395C128.297 58.4247 128.742 61.1145 129.166 61.4161C129.659 61.7697 129.605 62.2946 129.014 62.8863C128.507 63.3926 128.282 64.7526 128.513 65.9087C128.81 67.3943 128.571 68.1495 127.695 68.4853C127.015 68.7466 126.458 69.515 126.458 70.1934C126.458 70.8711 126.109 71.2107 125.683 70.9471C125.256 70.6835 124.907 70.6346 124.907 70.8378C124.907 71.0417 124.7 71.8473 124.447 72.6281C124.072 73.7811 124.137 73.8338 124.792 72.908C126.202 70.913 126.639 72.6638 125.258 74.7728L123.932 76.7942L122.067 74.2579C118.679 69.6522 106.79 58.8861 100.384 54.6215C90.6695 48.1541 84.5681 46.0264 71.5999 44.5835C68.9349 44.2873 66.7538 43.7298 66.7538 43.3452C66.7538 42.9606 67.2772 42.6458 67.9169 42.6458C68.5565 42.6458 69.0799 42.2969 69.0799 41.8704C69.0799 41.444 70.0391 41.0896 71.2122 41.0834C73.871 41.0687 75.6544 39.9971 74.941 38.8426C74.644 38.3618 74.0997 38.154 73.7322 38.3812C73.3647 38.6084 72.8405 38.4324 72.5676 37.9904C72.238 37.4577 74.0633 37.2383 77.9797 37.3391C81.2301 37.4228 84.0711 37.7849 84.2921 38.1432C84.5138 38.5014 85.0364 38.5828 85.4536 38.3254C85.8707 38.0672 86.8066 38.1184 87.5324 38.4394C88.2581 38.7604 89.4623 39.0961 90.209 39.1868C90.9557 39.2768 91.6527 39.4233 91.7597 39.5117C92.5343 40.1576 95.6545 39.8955 95.9359 39.1612C96.1282 38.6611 96.7059 38.2246 97.2207 38.1912C100.55 37.9749 102.421 37.5802 102.421 37.0933C102.421 36.7847 103.119 36.6661 103.972 36.8305C104.825 36.9948 105.523 36.7545 105.523 36.297C105.523 35.7666 106.578 35.6387 108.43 35.945C110.03 36.2094 112.472 36.4296 113.858 36.4342ZM213.3 38.085C215.219 38.5409 217.215 38.9876 217.736 39.0775C219.675 39.4125 219.575 40.2336 217.438 41.5409C216.229 42.2798 214.007 44.2586 212.5 45.9365C209.323 49.4769 204.728 51.0268 195.467 51.682C191.117 51.9899 188.918 51.7797 186.744 50.8485C185.145 50.1639 183.836 49.3544 183.836 49.0489C183.836 48.289 190.071 42.6458 190.912 42.6458C191.285 42.6458 191.59 42.3822 191.59 42.0596C191.59 41.2641 195.111 39.797 199.343 38.8302C206.8 37.1251 208.81 37.0181 213.3 38.085ZM234.235 38.7689C234.235 39.1954 234.605 39.5443 235.057 39.5443C235.508 39.5443 235.662 39.1954 235.398 38.7689C235.135 38.3424 234.766 37.9935 234.577 37.9935C234.389 37.9935 234.235 38.3424 234.235 38.7689ZM157.913 39.452C158.564 40.0428 159.981 40.6104 164.839 42.2279C165.692 42.5124 165.375 42.1589 164.134 41.4424C161.593 39.9762 156.8 38.4425 157.913 39.452ZM236.417 40.8492C236.976 41.0733 237.645 41.0454 237.902 40.788C238.16 40.5306 237.702 40.3476 236.885 40.3809C235.982 40.4181 235.798 40.6019 236.417 40.8492ZM159.024 41.8704C159.663 42.2837 160.536 42.6218 160.962 42.6218C161.389 42.6218 161.214 42.2837 160.575 41.8704C159.935 41.4571 159.063 41.1191 158.636 41.1191C158.21 41.1191 158.384 41.4571 159.024 41.8704ZM167.346 43.5173C167.872 44.0477 168.498 44.2857 168.736 44.0469C168.975 43.8081 168.545 43.3746 167.78 43.0831C166.675 42.6628 166.586 42.7512 167.346 43.5173ZM84.6914 48.3603C97.0424 52.4605 107.57 60.2841 116.651 72.1102C121.271 78.1286 126.559 89.2607 128.621 97.3099C129.059 99.0158 130.214 103.374 131.189 106.995C132.165 110.616 132.915 114.211 132.857 114.984C132.799 115.758 133.232 116.574 133.82 116.8C134.408 117.025 134.713 117.67 134.498 118.231C134.282 118.792 134.478 119.482 134.934 119.763C135.389 120.045 135.762 121.124 135.762 122.162C135.762 123.2 136.547 124.986 137.507 126.132C147.055 137.533 151.502 140.202 165.614 143C173.347 144.533 192.298 147.029 207.097 148.463C221.323 149.841 224.931 150.432 224.931 151.381C224.931 151.798 224.32 151.903 223.574 151.613C222.828 151.324 215.588 150.598 207.485 150.001C199.382 149.404 190.834 148.759 188.488 148.569L184.224 148.221L188.1 149.248C190.233 149.812 191.367 150.308 190.62 150.349C189.517 150.409 189.264 151.155 189.264 154.346C189.264 156.764 188.966 158.085 188.488 157.789C188.062 157.526 187.713 157.68 187.713 158.131C187.713 158.583 188.083 158.952 188.534 158.952C188.985 158.952 189.103 159.36 188.794 159.86C188.418 160.47 188.656 160.605 189.524 160.271C190.55 159.878 190.814 160.251 190.814 162.093C190.814 164.177 190.62 164.361 188.876 163.923C187.318 163.532 186.95 163.72 186.999 164.878C187.034 165.694 187.23 165.898 187.451 165.349C187.666 164.816 188.18 164.38 188.591 164.38C189.07 164.38 189.074 164.858 188.599 165.704C188.062 166.665 188.211 167.32 189.143 168.083C190.275 169.013 190.166 169.082 188.229 168.666C186.802 168.36 186.207 168.478 186.53 169.001C186.805 169.445 186.659 169.808 186.208 169.808C185.756 169.808 185.387 169.284 185.387 168.645C185.387 168.005 184.842 167.482 184.178 167.482C183.513 167.482 183.185 167.831 183.448 168.257C183.712 168.683 183.383 169.032 182.719 169.032C180.762 169.032 181.336 170.51 183.505 171.055C184.632 171.338 185.881 171.175 186.374 170.682C187.431 169.625 190.814 169.515 190.814 170.537C190.814 170.939 190.465 171.483 190.039 171.746C189.612 172.01 189.264 171.856 189.264 171.404C189.264 170.953 188.915 170.583 188.488 170.583C188.062 170.583 187.713 171.27 187.713 172.11C187.713 173.215 188.069 173.499 189.003 173.141C189.871 172.808 190.109 172.943 189.733 173.553C189.424 174.052 189.512 174.46 189.929 174.46C190.344 174.46 190.843 174.024 191.036 173.491C191.24 172.926 191.793 173.387 192.36 174.593C193.006 175.967 193.735 176.509 194.528 176.205C195.311 175.905 195.528 176.059 195.16 176.654C194.852 177.154 194.151 177.562 193.603 177.562C193.054 177.562 191.973 178.259 191.202 179.112C189.578 180.907 190.135 181.232 191.866 179.5C193.547 177.819 195.415 179.812 194.863 182.698C194.503 184.581 194.592 184.695 195.654 183.711C196.347 183.069 196.621 182.111 196.304 181.438C195.67 180.094 195.804 176.966 196.525 176.245C196.796 175.974 197.017 176.354 197.017 177.09C197.017 177.826 197.317 178.243 197.683 178.017C198.05 177.79 198.213 178.844 198.046 180.358C197.852 182.12 198.031 182.933 198.543 182.617C198.983 182.345 199.343 182.667 199.343 183.331C199.343 183.996 199.692 184.54 200.119 184.54C201.166 184.54 201.097 183.503 199.977 182.382C199.472 181.877 199.301 181.222 199.597 180.927C200.312 180.211 202.488 183.13 202.089 184.269C201.918 184.761 202.45 185.339 203.274 185.554C204.366 185.839 204.771 185.546 204.771 184.467C204.771 182.82 206.715 182.447 207.421 183.958C207.782 184.734 207.963 184.734 208.325 183.958C208.574 183.426 209.24 182.989 209.806 182.989C210.373 182.989 211.717 181.942 212.794 180.663C214.899 178.161 215.832 177.674 215.158 179.43C214.897 180.11 215.419 180.731 216.54 181.072C219.095 181.853 221.054 183.759 221.054 185.468C221.054 187.474 213.177 191.122 206.125 192.383C201.725 193.169 196.467 193.17 179.257 192.385C167.489 191.849 155.244 191.087 152.045 190.693C148.847 190.298 142.217 189.633 137.313 189.215C127.75 188.398 100.445 185.559 96.6058 184.982C95.3265 184.79 90.3563 184.09 85.5621 183.427C80.7672 182.765 75.2636 181.869 73.3313 181.435C62.6691 179.046 51.4098 173.46 44.6563 167.209C43.8026 166.419 42.0254 164.937 40.7065 163.914C39.3876 162.892 36.6273 159.96 34.5725 157.398C32.5177 154.837 30.6669 152.911 30.4591 153.118C30.2521 153.326 32.8008 156.729 36.124 160.682C41.2059 166.726 41.5245 167.253 38.1307 163.992C32.9752 159.04 25.2897 147.851 25.9185 146.212C26.5628 144.533 25.651 142.203 24.8539 143.493C24.4523 144.142 23.8684 143.681 23.0232 142.045C21.367 138.843 21.4585 138.26 23.3497 139.971C24.9152 141.388 24.9159 141.386 23.6567 138.347C22.9628 136.673 22.1052 134.946 21.7509 134.509C21.3965 134.071 20.9879 132.85 20.8429 131.795C20.6979 130.74 20.3063 129.44 19.9721 128.907C19.6379 128.374 19.5635 127.615 19.8078 127.22C20.0512 126.825 19.9365 125.692 19.5527 124.7C17.2056 118.637 16.4899 109.032 17.5972 98.473C17.7988 96.5539 18.0756 93.3889 18.2128 91.4403C19.2394 76.8105 32.3061 58.3441 46.6358 51.2688C55.3705 46.9561 61.3277 45.6891 71.0184 46.0815C76.5778 46.3063 80.4477 46.9515 84.6914 48.3603ZM248.192 52.338C248.192 52.9777 248.758 53.5011 249.45 53.5011C250.48 53.5011 250.534 53.291 249.743 52.338C249.212 51.6983 248.646 51.1749 248.485 51.1749C248.324 51.1749 248.192 51.6983 248.192 52.338ZM57.0616 65.9878C47.5097 68.1456 37.6887 76.6523 32.6953 87.0943C28.9464 94.9326 27.8159 100.365 27.8856 110.202C28.0244 129.902 37.1297 146.764 53.4119 157.473C60.9617 162.439 66.563 164.454 74.1974 164.951C84.7511 165.638 93.6222 161.769 101.664 152.97C109.686 144.192 113.679 132.297 113.017 119.149C112.565 110.193 111.721 105.054 109.873 100.024C108.571 96.478 104.09 87.5495 103.257 86.8423C103.006 86.6291 101.816 85.135 100.614 83.5222C97.2812 79.0521 90.1547 72.1102 88.8978 72.1102C88.2837 72.1102 87.5789 71.7837 87.3323 71.3844C86.4499 69.9577 78.6907 66.7531 74.1711 65.9498C68.7581 64.9875 61.4192 65.0038 57.0616 65.9878ZM263.376 66.5786C263.042 67.119 262.979 67.7704 263.235 68.0262C263.929 68.7202 264.685 67.6998 264.31 66.5755C264.048 65.7877 263.865 65.7877 263.376 66.5786ZM73.2801 68.621C79.4506 69.9282 88.3969 74.7108 93.9044 79.6461C99.4391 84.6046 104.014 92.194 108.292 103.513C108.614 104.366 108.946 105.936 109.029 107.002C109.112 108.068 109.591 111.558 110.095 114.756C111.297 122.39 110.204 129.97 106.852 137.242C105.968 139.161 104.696 141.952 104.026 143.445C103.357 144.938 101.859 147.419 100.698 148.958C99.536 150.498 98.8226 151.994 99.1126 152.284C99.4026 152.574 98.9017 153.004 98.0007 153.24C97.099 153.475 96.1902 154.324 95.9801 155.127C95.611 156.538 88.866 160.132 83.115 161.982C79.815 163.043 72.8925 163.071 67.4803 162.045C54.7199 159.625 42.0696 148.486 34.909 133.365C25.8604 114.257 28.9541 90.6215 42.1309 78.193C49.3566 71.3774 56.884 68.0774 66.3661 67.568C67.219 67.5222 70.3306 67.996 73.2801 68.621ZM260.598 70.1531C260.598 70.7525 260.195 71.4922 259.703 71.7961C259.183 72.1179 259.017 72.0109 259.307 71.5426C259.581 71.0983 259.286 70.3043 258.651 69.777C256.959 68.3728 257.243 67.2671 259.048 68.2333C259.9 68.69 260.598 69.5537 260.598 70.1531ZM78.9528 72.9817C79.4793 73.512 80.105 73.7501 80.3431 73.5113C80.5819 73.2724 80.1515 72.839 79.387 72.5475C78.2821 72.1272 78.1929 72.2156 78.9528 72.9817ZM81.486 73.9997C81.486 74.2083 83.4926 75.7769 85.9444 77.4866C94.2293 83.2616 99.5593 89.1064 98.9087 91.7032C98.5497 93.133 98.8141 93.4524 100.431 93.5439C102.027 93.6339 102.258 93.4199 101.685 92.3809C99.9299 89.1933 93.1066 81.562 89.6081 78.8722C85.6397 75.8219 81.486 73.3298 81.486 73.9997ZM17.5165 86.067C16.8978 88.6288 16.4597 89.5259 16.4201 88.3148C16.3565 86.3732 17.8414 81.0906 18.3159 81.569C18.4431 81.6977 18.0833 83.7214 17.5165 86.067ZM258.883 87.7239C258.689 88.3047 258.338 87.9527 258.064 86.9044C257.726 85.6149 257.827 85.3117 258.402 85.8871C258.854 86.3383 259.069 87.1641 258.883 87.7239ZM16.0921 93.2392C15.8774 93.7727 15.7014 93.3361 15.7014 92.27C15.7014 91.2038 15.8774 90.7681 16.0921 91.3008C16.3077 91.8342 16.3077 92.7065 16.0921 93.2392ZM15.5967 100.024L15.0159 105.064L14.9097 100.347C14.8515 97.7527 15.0361 95.3971 15.3206 95.1133C16.1743 94.2596 16.203 94.7667 15.5967 100.024ZM371.865 101.322C367.681 101.844 358.163 104.026 358.518 104.381C358.709 104.572 360.569 104.336 362.651 103.857C364.734 103.378 370.101 102.532 374.579 101.977C380.382 101.257 381.495 100.977 378.456 100.999C376.11 101.017 373.144 101.162 371.865 101.322ZM391.184 103.189C395.838 104.008 399.783 104.543 399.948 104.378C400.371 103.954 387.01 101.557 384.659 101.636C383.593 101.671 386.529 102.37 391.184 103.189ZM48.9201 107.714C48.9201 110.238 48.7084 112.855 48.4494 113.529C47.9594 114.806 44.2678 115.278 44.2678 114.064C44.2678 113.047 41.792 112.269 41.0182 113.043C40.6499 113.411 40.9663 114.255 41.7292 114.938C43.3575 116.395 50.0839 117.56 50.7399 116.499C50.988 116.097 51.4176 113.229 51.6944 110.128C52.0805 105.786 51.9534 104.333 51.14 103.818C49.2047 102.593 48.9201 103.093 48.9201 107.714ZM346.278 108.579C342.013 110.692 337.834 112.86 336.992 113.395C328.828 118.579 325.311 121.409 318.592 128.2C309.345 137.547 309.587 137.254 306.579 142.685C302.919 149.291 299.396 158.03 298.967 161.568C298.646 164.21 298.846 163.899 300.112 159.791C302.267 152.795 306.446 144.282 310.539 138.545C315.113 132.136 326.273 121.457 333.096 116.96C339.302 112.87 350.23 107.258 354.803 105.811C357.224 105.046 357.481 104.819 355.97 104.782C354.904 104.757 350.542 106.465 346.278 108.579ZM401.006 104.961C401.184 105.117 402.725 105.458 404.431 105.718C406.593 106.047 407.063 105.977 405.982 105.488C404.493 104.813 400.34 104.374 401.006 104.961ZM67.723 106.784C67.0531 107.024 66.7538 109.124 66.7538 113.58V120.029L70.5857 120.948C72.6932 121.454 75.1527 121.634 76.0513 121.349C77.4796 120.895 77.6564 120.325 77.4532 116.824L77.2214 112.817L73.5422 111.654C70.6299 110.734 69.8623 110.137 69.8592 108.793C69.8545 106.901 69.1761 106.262 67.723 106.784ZM411.797 108.082C411.797 108.25 412.338 108.595 413 108.849C413.69 109.114 414.001 108.983 413.73 108.544C413.275 107.807 411.797 107.454 411.797 108.082ZM16.2193 117.082L16.1999 119.021L15.5788 117.082C15.2377 116.016 14.9671 113.573 14.9779 111.654L14.9973 108.165L15.6184 111.654C15.9596 113.573 16.2302 116.016 16.2193 117.082ZM54.409 109.642C53.27 111.015 53.4343 111.091 57.7633 111.195C59.4334 111.234 60.9392 111.702 61.123 112.237C61.3649 112.942 60.4314 113.153 57.7082 113.012C54.1617 112.828 53.9469 112.929 53.7197 114.898C53.4196 117.498 55.2061 118.564 60.3073 118.827L64.04 119.021L64.2726 114.998C64.5354 110.46 63.8647 109.752 58.4782 108.891C56.2001 108.527 55.1782 108.715 54.409 109.642ZM229.337 110.249C229.09 110.867 228.906 110.684 228.869 109.78C228.836 108.963 229.019 108.506 229.276 108.763C229.534 109.02 229.561 109.69 229.337 110.249ZM416.449 110.104C417.089 110.517 417.961 110.855 418.388 110.855C418.814 110.855 418.64 110.517 418 110.104C417.36 109.69 416.488 109.352 416.062 109.352C415.635 109.352 415.81 109.69 416.449 110.104ZM74.3602 116.501C74.582 119.175 74.4401 119.408 72.5908 119.408C71.2246 119.408 70.3771 118.858 69.946 117.692C68.8993 114.862 69.7754 113.089 72.0892 113.357C73.8252 113.559 74.1548 114.015 74.3602 116.501ZM79.9841 115.014C78.9893 117.633 79.1916 121.571 80.3718 122.551C81.5131 123.498 82.5932 122.244 82.7452 119.796C82.7979 118.943 82.8848 117.635 82.939 116.888C82.9987 116.062 83.6679 115.531 84.6518 115.531C87.2222 115.531 85.925 113.622 83.1701 113.35C81.1564 113.151 80.578 113.453 79.9841 115.014ZM379.813 113.753C380.773 113.937 382.342 113.937 383.302 113.753C384.262 113.567 383.476 113.416 381.557 113.416C379.638 113.416 378.853 113.567 379.813 113.753ZM388.391 113.735C388.95 113.959 389.619 113.931 389.876 113.674C390.134 113.416 389.676 113.233 388.859 113.266C387.956 113.304 387.772 113.487 388.391 113.735ZM87.1889 115.655C85.7273 117.27 86.0933 117.416 90.9022 117.132C92.4568 117.04 93.9603 117.34 94.2433 117.799C94.5852 118.351 93.4532 118.633 90.8882 118.633C87.6541 118.633 86.9346 118.897 86.5081 120.239C85.7606 122.595 87.9596 124.556 91.9637 125.105C97.1362 125.814 97.7689 125.32 97.7689 120.571C97.7689 116.021 97.4611 115.724 91.7675 114.776C89.1033 114.333 88.2356 114.499 87.1889 115.655ZM369.884 115.442C355.753 119.964 347.615 129.33 346.841 141.96C346.182 152.716 350.727 163.141 360.113 172.398C366.452 178.649 371.056 181.739 379.619 185.491C391.393 190.65 403.959 192.419 414.842 190.451C431.686 187.406 442.557 176.804 443.366 162.635C443.56 159.239 443.277 155.656 442.651 153.585C441.672 150.344 441.632 150.636 441.913 158.855C442.143 165.57 441.96 167.856 441.111 168.875C440.505 169.602 439.61 171.136 439.121 172.286C437.923 175.1 433.182 180.258 429.968 182.245C424.969 185.335 418.136 187.491 411.642 188.028C404.204 188.643 393.506 187.394 391.623 185.691C390.924 185.058 388.984 184.54 387.311 184.539C380.999 184.538 368.028 176.652 360.246 168.083C351.467 158.418 347.969 147.089 350.602 136.854C351.041 135.148 351.469 133.266 351.552 132.67C351.716 131.509 353.065 129.717 357.813 124.354C361.001 120.753 367.863 116.921 374.275 115.161C376.633 114.513 377.335 114.109 376.13 114.091C375.063 114.077 372.253 114.685 369.884 115.442ZM60.0995 115.227C60.7741 115.486 61.3261 116.032 61.3261 116.441C61.3261 117.526 57.2391 116.87 56.8631 115.725C56.5235 114.692 58.0812 114.452 60.0995 115.227ZM400.166 117.516C400.166 119.751 401.315 119.477 401.939 117.094C402.206 116.074 401.968 115.531 401.257 115.531C400.604 115.531 400.166 116.328 400.166 117.516ZM337.167 117.144C336.421 117.579 335.81 118.239 335.81 118.612C335.81 119.512 331.358 123.949 328.444 125.952C322.062 130.339 311.9 140.599 309.752 144.823C308.945 146.411 308.109 147.884 307.895 148.097C306.341 149.646 303.778 157.839 302.314 165.931C301.59 169.933 302.014 188.601 302.929 193.047L303.332 195.008L302.204 193.099C301.115 191.257 301.085 191.311 301.348 194.65C301.498 196.553 302.538 200.552 303.658 203.537C304.779 206.522 305.62 209.662 305.526 210.515C305.055 214.816 305.903 249.149 306.504 250.097C307.371 251.465 306.015 252.729 303.205 253.17C300.937 253.526 300.799 253.471 302.304 252.808C303.935 252.089 304.035 251.699 303.555 247.942C302.859 242.482 302.469 242.298 302.469 247.428V251.645L298.01 252.679C295.558 253.249 292.505 254.254 291.226 254.915C288.446 256.349 276.106 268.845 276.106 270.225C276.106 270.757 275.584 271.626 274.945 272.155C273.435 273.409 268.929 281.862 265.851 289.216C263.634 294.515 263.391 295.927 263.121 305.111C262.888 313.026 263.088 315.857 264.053 318.293C264.729 319.998 265.061 320.522 264.792 319.456C263.808 315.559 263.549 300.953 264.394 297.01C266.469 287.335 273.197 275.209 282.7 264.016C284.578 261.805 284.558 261.92 282.305 266.342C276.862 277.026 276.666 287.198 281.661 299.877C282.543 302.117 283.515 303.948 283.82 303.948C284.126 303.948 284.377 304.423 284.377 305.004C284.377 306.598 287.987 312.114 288.338 311.059C288.506 310.554 289 310.362 289.436 310.631C289.945 310.945 289.878 311.337 289.25 311.725C287.266 312.951 296.919 324.573 305.183 330.908C315.732 338.996 329.322 343.553 339.236 342.328C341.83 342.008 345.455 341.655 347.293 341.544C349.889 341.388 351.443 340.659 354.271 338.271C360.959 332.623 364.488 325.756 364.511 318.348C364.525 313.809 364.983 312.843 367.622 311.79C369.393 311.083 369.413 311.021 367.885 310.975C366.884 310.946 366.063 310.286 365.806 309.305C365.442 307.91 365.645 307.75 367.267 308.157C370.189 308.89 372.908 307.902 373.178 306.008C373.593 303.092 374.811 304.472 376.455 309.719C377.331 312.515 378.477 314.803 379.002 314.803C379.575 314.803 379.759 315.321 379.463 316.094C379.147 316.917 379.273 317.195 379.812 316.862C380.277 316.575 381.149 316.832 381.75 317.434C384.435 320.118 390.833 322.645 396.054 323.083C402.938 323.66 408.785 322.016 415.047 317.741C425.493 310.611 430.234 301.424 438.168 272.933C438.939 270.161 440.838 263.447 442.386 258.012C443.934 252.579 446.404 242.983 447.875 236.69C449.345 230.397 451.627 220.711 452.946 215.167C456.751 199.168 458.288 189.968 457.154 189.968C456.283 189.968 454.294 195.445 454.072 198.456C454.023 199.133 453.785 200.03 453.543 200.449C452.649 202.001 450.398 212.544 450.861 213.007C451.125 213.272 451.341 212.906 451.341 212.195C451.341 211.484 451.713 210.903 452.169 210.903C452.624 210.903 452.826 211.514 452.618 212.26C451.116 217.645 451.146 217.59 450.58 215.979C450.192 214.876 449.677 215.926 448.677 219.856C447.923 222.821 446.836 226.992 446.26 229.124C445.685 231.256 444.649 235.269 443.958 238.041C440.559 251.674 436.551 266.516 433.908 275.259C432.297 280.59 430.544 286.957 430.014 289.408C429.483 291.859 428.613 294.389 428.082 295.03C427.55 295.67 427.319 296.194 427.568 296.194C428.869 296.194 421.289 308.986 417.519 313.152C411.407 319.906 406.872 322.142 399.296 322.135C394.27 322.13 392.71 321.783 388.859 319.813C385.846 318.272 383.543 316.377 381.975 314.147C379.832 311.101 379.623 310.258 379.662 304.852C379.72 297.028 380.256 291.555 380.967 291.548C381.282 291.544 381.51 290.757 381.474 289.798C381.391 287.628 383.893 275.721 386.483 265.955C389.528 254.474 391.691 242.078 391.724 235.929C391.753 230.239 390.541 222.649 389.151 219.82C388.019 217.517 379.285 209.37 374.498 206.151C369.78 202.979 361.781 197.729 359.883 196.558C359.191 196.132 356.9 194.126 354.791 192.1C352.682 190.074 350.667 188.417 350.312 188.417C349.957 188.417 348.801 187.387 347.741 186.129C346.502 184.655 345.378 184.01 344.584 184.314C343.758 184.631 343.469 184.435 343.708 183.72C343.903 183.134 342.468 180.669 340.518 178.241C335.007 171.378 331.82 165.567 329.864 158.815C327.282 149.899 327.1 143.216 329.226 135.37C329.746 133.455 329.643 133.185 328.56 133.601C327.856 133.871 327.281 133.721 327.281 133.268C327.281 132.815 327.962 132.266 328.795 132.048C329.67 131.82 331.346 129.639 332.763 126.888C334.113 124.267 335.613 121.599 336.095 120.959C337.154 119.556 339.004 116.297 338.724 116.33C338.614 116.343 337.913 116.709 337.167 117.144ZM246.641 119.408C246.002 119.821 245.129 120.16 244.703 120.16C244.277 120.16 244.451 119.821 245.091 119.408C245.73 118.995 246.603 118.657 247.029 118.657C247.456 118.657 247.281 118.995 246.641 119.408ZM432.021 118.835C432.2 118.946 433.217 119.732 434.283 120.58L436.221 122.122L434.744 120.377C433.932 119.418 432.914 118.633 432.483 118.633C432.051 118.633 431.844 118.724 432.021 118.835ZM93.5361 121.786C93.8176 122.241 93.8641 122.796 93.64 123.02C93.0314 123.629 90.0151 122.516 90.0151 121.682C90.0151 120.684 92.9081 120.769 93.5361 121.786ZM402.299 121.472C402.832 121.688 403.704 121.688 404.237 121.472C404.771 121.257 404.334 121.081 403.268 121.081C402.202 121.081 401.766 121.257 402.299 121.472ZM439.711 125.224C440.712 126.29 441.706 127.162 441.92 127.162C442.133 127.162 441.488 126.29 440.486 125.224C439.484 124.157 438.49 123.285 438.277 123.285C438.064 123.285 438.709 124.157 439.711 125.224ZM166.002 132.193C166.642 132.737 167.996 133.436 169.012 133.746C170.403 134.171 170.6 134.47 169.809 134.959C168.944 135.493 168.96 135.666 169.901 135.938C177.4 138.106 180.151 138.767 183.448 139.188C185.58 139.461 187.848 139.878 188.488 140.116C189.128 140.354 190.349 140.652 191.202 140.778C192.055 140.904 195.851 141.555 199.639 142.226C203.427 142.897 207.788 143.45 209.331 143.457C213.397 143.474 214.951 144.68 211.799 145.373C206.36 146.567 167.081 141.631 159.694 138.824C155.172 137.106 150.267 133.584 150.921 132.527C151.172 132.121 151.665 131.967 152.017 132.185C152.37 132.403 152.872 132.024 153.132 131.344C153.535 130.296 154.466 130.191 159.223 130.656C162.312 130.957 165.362 131.649 166.002 132.193ZM218.308 131.866C218.027 132.321 217.963 132.859 218.166 133.063C218.37 133.266 218.743 132.894 218.995 132.235C219.52 130.869 219.073 130.629 218.308 131.866ZM21.7578 137.63C21.7578 138.056 21.4198 137.882 21.0065 137.242C20.5932 136.602 20.2551 135.73 20.2551 135.303C20.2551 134.877 20.5932 135.051 21.0065 135.691C21.4198 136.331 21.7578 137.203 21.7578 137.63ZM326.709 141.586C325.178 154.686 329.74 167.623 340.657 181.132C345.895 187.614 352.032 192.633 366.825 202.529C380.285 211.532 380.356 211.593 384.913 217.783C391.567 226.823 392.147 235.759 387.458 257.038C385.298 266.841 381.336 278.109 380.949 275.551C380.812 274.645 381.981 267.492 383.547 259.655C386.745 243.651 387.526 231.923 385.869 224.807C384.557 219.169 383.873 217.991 379.799 214.343C374.648 209.73 374.328 209.506 361.044 201.214C343.069 189.996 334.982 181.803 328.654 168.403C324.436 159.47 322.926 151.69 324.038 144.618C324.849 139.466 326.636 134.226 327.113 135.603C327.235 135.952 327.053 138.645 326.709 141.586ZM348.991 139.568C348.991 139.995 348.642 140.343 348.216 140.343C347.79 140.343 347.441 139.995 347.441 139.568C347.441 139.142 347.79 138.793 348.216 138.793C348.642 138.793 348.991 139.142 348.991 139.568ZM26.438 147.082C26.4403 147.427 27.3072 148.756 28.3656 150.036L30.2893 152.362L29.0883 149.857C27.9074 147.396 26.4303 145.849 26.438 147.082ZM172.06 147.076C172.619 147.3 173.288 147.272 173.546 147.015C173.803 146.757 173.346 146.574 172.529 146.608C171.625 146.645 171.441 146.829 172.06 147.076ZM179.814 147.851C180.373 148.075 181.042 148.048 181.3 147.79C181.557 147.533 181.1 147.35 180.282 147.383C179.379 147.42 179.195 147.604 179.814 147.851ZM114.841 153.368C113.639 153.792 111.726 155.476 111.726 156.108C111.726 156.309 112.783 156.843 114.074 157.293C116.483 158.133 118.704 157.773 118.704 156.543C118.704 156.163 119.006 155.851 119.373 155.851C119.742 155.851 120.004 156.636 119.955 157.596C119.875 159.184 119.454 159.352 115.234 159.472C111.462 159.58 110.337 159.928 109.19 161.344C108.079 162.717 107.994 163.219 108.785 163.72C110.687 164.928 113.404 164.448 113.827 162.829C114.05 161.976 114.541 161.279 114.918 161.279C115.804 161.279 115.784 162.252 114.847 164.717C114.355 166.01 114.355 166.706 114.847 166.706C115.262 166.706 114.905 167.404 114.052 168.257C111.929 170.38 112.102 171.124 114.809 171.521C118.477 172.059 119.142 171.114 117.069 168.309C115.61 166.335 115.46 165.723 116.307 165.2C116.887 164.841 118.335 164.828 119.525 165.169C120.715 165.51 121.903 165.574 122.165 165.312C122.428 165.05 122.843 165.601 123.087 166.537C123.332 167.474 123.842 168.048 124.22 167.815C124.598 167.581 124.907 167.735 124.907 168.157C124.907 168.58 124.122 169.036 123.163 169.172C122.041 169.332 121.33 170.043 121.17 171.165C120.947 172.733 121.247 172.909 124.123 172.909C125.884 172.909 127.129 172.592 126.889 172.204C126.236 171.148 127.278 168.969 128.173 169.522C128.651 169.817 128.544 170.258 127.898 170.668C127.078 171.187 127.146 171.338 128.203 171.347C128.949 171.353 129.559 171.859 129.559 172.47C129.559 174.174 133.541 174.302 135.966 172.676C137.143 171.886 137.908 170.917 137.664 170.524C137.421 170.13 138.376 169.836 139.787 169.869C141.199 169.902 141.83 170.121 141.19 170.354C140.55 170.586 139.294 171.6 138.398 172.605C137.502 173.61 136.542 174.206 136.266 173.93C135.989 173.653 135.762 173.877 135.762 174.427C135.762 175.112 136.453 175.291 137.942 174.994C140.586 174.465 145.859 175.559 146.623 176.795C147.015 177.429 147.307 177.353 147.621 176.534C147.979 175.605 148.679 175.515 151.186 176.078C152.902 176.464 154.932 176.726 155.696 176.66C158.33 176.433 159.799 176.789 159.799 177.652C159.799 178.163 159.084 178.338 158.055 178.078C156.361 177.652 156.354 177.672 157.83 178.773C159.893 180.315 160.796 179.86 161.888 176.728C162.397 175.267 162.833 174.622 162.857 175.294C162.881 175.966 163.762 177.325 164.815 178.314C165.868 179.304 166.546 180.411 166.32 180.776C166.095 181.14 166.367 181.436 166.926 181.433C168.008 181.428 171.43 176.879 171.43 175.446C171.43 174.975 170.994 174.414 170.461 174.198C169.928 173.983 170.626 173.779 172.011 173.746C175.256 173.667 175.325 172.505 172.085 172.514C170.74 172.519 169.482 172.063 169.29 171.502C169.022 170.721 169.609 170.608 171.798 171.018C174.917 171.604 178.408 170.281 178.408 168.514C178.408 167.23 177.463 167.186 176.237 168.412C175.514 169.136 175.307 169.049 175.307 168.024C175.307 167.299 175.656 166.706 176.082 166.706C176.509 166.706 176.857 166.381 176.857 165.983C176.857 165.144 173.906 164.016 172.205 164.206C171.566 164.277 171.441 164.154 171.929 163.933C173.086 163.408 172.322 160.503 171.027 160.503C170.479 160.503 169.666 159.456 169.22 158.177C168.774 156.898 167.955 155.856 167.399 155.863C166.673 155.871 166.716 156.085 167.553 156.626C168.398 157.172 168.438 157.382 167.701 157.39C167.143 157.396 166.891 157.733 167.141 158.138C167.392 158.543 166.802 159.26 165.83 159.732C164.138 160.553 164.127 160.538 165.569 159.383C166.416 158.704 166.65 158.177 166.105 158.177C165.572 158.177 165.331 157.861 165.57 157.474C165.809 157.088 165.276 156.961 164.387 157.194C163.157 157.516 163.018 157.774 163.804 158.272C165.292 159.216 163.861 159.106 162.052 158.138C161.177 157.67 160.761 156.929 161.074 156.394C161.372 155.882 160.895 156.095 160.013 156.868C158.968 157.782 158.307 157.964 158.114 157.387C157.899 156.74 157.23 156.771 155.623 157.503C153.715 158.372 153.299 158.329 152.456 157.177C151.385 155.711 149.298 155.318 150.182 156.749C150.557 157.354 150.23 157.513 149.175 157.237C148.317 157.013 147.04 157.15 146.34 157.541C145.516 158.003 145.067 157.968 145.067 157.441C145.067 156.992 144.523 156.626 143.858 156.626C143.194 156.626 142.842 156.314 143.078 155.932C143.597 155.093 141.344 154.114 140.332 154.739C139.937 154.983 139.836 155.542 140.108 155.982C140.398 156.452 139.904 156.408 138.909 155.875C137.978 155.376 136.104 155.069 134.744 155.191C132.918 155.356 132.327 155.117 132.478 154.275C132.629 153.437 132.403 153.495 131.617 154.494C130.464 155.963 128.755 156.251 127.582 155.176C126.41 154.101 123.107 153.618 121.418 154.275C120.512 154.627 119.062 154.479 117.929 153.92C116.863 153.393 115.473 153.145 114.841 153.368ZM127.458 160.663C127.307 160.965 126.759 161.081 126.239 160.922C125.72 160.763 124.321 160.419 123.131 160.157C120.253 159.525 121.086 158.34 124.098 158.782C126.142 159.082 126.47 158.883 126.549 157.296C126.628 155.735 126.722 155.809 127.187 157.789C127.487 159.069 127.609 160.362 127.458 160.663ZM157.473 158.519C157.473 158.707 157.124 159.077 156.698 159.34C156.271 159.604 155.922 159.45 155.922 158.998C155.922 158.547 156.271 158.177 156.698 158.177C157.124 158.177 157.473 158.331 157.473 158.519ZM134.362 161.472C133.427 162.408 132.661 162.747 132.661 162.226C132.661 161.705 132.138 161.279 131.498 161.279C129.219 161.279 130.381 159.822 132.855 159.577C136.197 159.246 136.371 159.464 134.362 161.472ZM229.103 161.085C228.405 164.003 228.131 164.38 226.703 164.38C225.587 164.38 225.592 164.241 226.749 162.962C227.455 162.182 228.032 160.961 228.032 160.248C228.032 159.536 228.388 158.952 228.823 158.952C229.291 158.952 229.406 159.82 229.103 161.085ZM141.496 160.869C143.083 161.219 143.498 161.607 142.915 162.19C142.332 162.773 141.39 162.705 139.702 161.957C137.405 160.941 136.289 159.461 138.282 160.075C138.816 160.24 140.262 160.596 141.496 160.869ZM186.162 160.503C186.162 160.93 186.511 161.279 186.937 161.279C187.364 161.279 187.713 160.93 187.713 160.503C187.713 160.077 187.364 159.728 186.937 159.728C186.511 159.728 186.162 160.077 186.162 160.503ZM216.869 162.177C216.016 163.394 215.626 163.58 215.626 162.77C215.626 161.525 217.232 159.525 217.786 160.078C217.965 160.257 217.552 161.201 216.869 162.177ZM221.793 162.99C221.111 165.458 218.728 167.769 218.728 165.96C218.728 165.228 222.091 159.809 222.39 160.059C222.485 160.138 222.216 161.457 221.793 162.99ZM118.704 160.796C118.704 160.957 118.181 161.523 117.541 162.054C116.588 162.845 116.378 162.791 116.378 161.761C116.378 161.069 116.901 160.503 117.541 160.503C118.181 160.503 118.704 160.635 118.704 160.796ZM212.969 161.096C215.71 162.974 213.524 168.357 210.514 167.146C209.123 166.586 209.14 166.511 210.797 165.872C213.248 164.927 213.883 162.847 212.115 161.554C210.652 160.484 211.45 160.057 212.969 161.096ZM152.692 162.597C152.232 163.151 151.026 163.605 150.012 163.605C148.998 163.605 148.168 163.151 148.168 162.597C148.168 161.964 149.166 161.589 150.848 161.589C152.96 161.589 153.351 161.803 152.692 162.597ZM161.267 163.308C161.899 163.847 158.974 164.527 157.861 164.099C155.769 163.297 156.576 161.995 158.83 162.536C160.002 162.817 161.099 163.164 161.267 163.308ZM184.231 162.842C184.5 163.275 185.043 163.43 185.44 163.184C186.516 162.519 186.316 162.054 184.953 162.054C184.289 162.054 183.964 162.408 184.231 162.842ZM124.907 163.992C124.907 164.632 124.558 165.156 124.132 165.156C123.705 165.156 123.356 164.632 123.356 163.992C123.356 163.353 123.705 162.829 124.132 162.829C124.558 162.829 124.907 163.353 124.907 163.992ZM134.972 164.011C134.432 164.661 133.831 165.033 133.636 164.838C133.098 164.3 134.191 162.829 135.127 162.829C135.642 162.829 135.583 163.274 134.972 164.011ZM143.959 164.823C143.249 165.534 142.493 165.941 142.279 165.728C142.066 165.515 142.473 164.759 143.184 164.048C143.895 163.337 144.651 162.93 144.864 163.143C145.077 163.357 144.67 164.113 143.959 164.823ZM168.716 163.576C170.14 164.161 170.155 164.259 168.91 164.768C167.221 165.456 164.96 164.663 165.611 163.61C166.169 162.707 166.591 162.702 168.716 163.576ZM181.252 164.122C180.967 164.406 180.734 164.999 180.734 165.44C180.734 165.925 181.096 165.88 181.652 165.324C182.156 164.819 182.389 164.226 182.169 164.006C181.949 163.785 181.535 163.837 181.252 164.122ZM153.596 164.685C153.596 164.852 153.055 165.197 152.393 165.452C151.703 165.716 151.392 165.586 151.663 165.147C152.118 164.41 153.596 164.057 153.596 164.685ZM131.095 167.113C129.908 168.543 127.123 168.343 126.611 166.791C126.344 165.979 126.749 165.836 128.247 166.212C129.375 166.495 130.463 166.352 130.753 165.882C131.035 165.426 131.454 165.242 131.686 165.473C131.917 165.704 131.651 166.442 131.095 167.113ZM164.241 165.624C163.984 165.881 163.315 165.909 162.756 165.685C162.137 165.438 162.321 165.254 163.224 165.217C164.041 165.183 164.499 165.366 164.241 165.624ZM231.909 166.558C231.909 168.317 229.896 171.155 229.167 170.425C228.867 170.126 229.188 169.317 229.879 168.626C230.569 167.936 231.134 166.872 231.134 166.264C231.134 165.654 231.308 165.156 231.522 165.156C231.735 165.156 231.909 165.787 231.909 166.558ZM297.968 167.094C297.983 168.373 298.157 168.803 298.354 168.048C298.551 167.294 298.538 166.247 298.325 165.722C298.113 165.197 297.952 165.815 297.968 167.094ZM116.766 166.706C117.029 167.133 117.594 167.482 118.02 167.482C118.447 167.482 118.58 167.133 118.316 166.706C118.053 166.28 117.488 165.931 117.062 165.931C116.635 165.931 116.502 166.28 116.766 166.706ZM121.03 167.094C120.239 168.047 120.293 168.257 121.323 168.257C122.015 168.257 122.581 167.734 122.581 167.094C122.581 166.454 122.449 165.931 122.288 165.931C122.127 165.931 121.561 166.454 121.03 167.094ZM173.756 166.231C173.756 166.395 172.728 166.681 171.471 166.866C170.214 167.05 169.362 166.916 169.578 166.566C169.962 165.944 173.756 165.64 173.756 166.231ZM139.988 168.357C140.419 168.752 139.532 169.032 137.856 169.032C135.807 169.032 134.987 168.696 134.987 167.855C134.987 166.964 135.508 166.799 137.119 167.179C138.292 167.456 139.583 167.986 139.988 168.357ZM216.726 167.177C217.4 167.436 217.952 168.134 217.952 168.728C217.952 169.322 218.389 169.813 218.922 169.819C219.522 169.827 219.596 170.048 219.116 170.401C218.689 170.714 217.642 171.815 216.789 172.847C215.404 174.524 215.386 174.669 216.62 174.219C217.946 173.734 217.946 173.79 216.62 175.584C215.861 176.612 214.628 177.62 213.882 177.822C213.136 178.025 212.525 178.711 212.525 179.344C212.525 179.978 211.952 180.717 211.251 180.986C209.181 181.78 208.896 180.643 210.782 179.114C211.855 178.244 212.347 177.223 212.056 176.467C211.527 175.089 209.769 174.824 209.036 176.011C208.772 176.437 208.141 176.775 207.633 176.761C207.125 176.748 207.407 176.203 208.26 175.55C209.204 174.828 210.646 174.527 211.943 174.78C213.454 175.075 214.076 174.88 214.076 174.11C214.076 173.511 214.944 172.339 216.006 171.504C217.672 170.193 217.78 169.854 216.792 169.034C216.161 168.511 215.118 168.286 214.473 168.534C213.828 168.781 213.3 168.675 213.3 168.297C213.3 167.92 213.737 167.435 214.269 167.22C214.803 167.005 215.298 166.801 215.369 166.768C215.441 166.734 216.051 166.918 216.726 167.177ZM225.706 167.119C225.706 168.417 223.331 172.909 222.644 172.909C221.464 172.909 221.645 171.702 222.992 170.583C223.632 170.052 224.156 168.963 224.156 168.162C224.156 167.361 224.504 166.706 224.931 166.706C225.357 166.706 225.706 166.892 225.706 167.119ZM458.824 172.715C458.548 176.02 458.086 179.946 457.796 181.438C457.004 185.514 457.062 188.4 457.932 188.204C458.358 188.107 458.608 187.731 458.486 187.366C458.365 187.001 458.624 186.271 459.061 185.744C459.499 185.217 459.642 184.57 459.38 184.308C459.118 184.046 459.165 183.206 459.485 182.441C460.24 180.637 460.579 166.706 459.868 166.706C459.57 166.706 459.1 169.411 458.824 172.715ZM149.719 168.174C149.719 169.07 147.765 169.808 145.391 169.808C142.607 169.808 143.12 168.404 146.036 168.042C147.422 167.871 148.818 167.674 149.138 167.606C149.457 167.537 149.719 167.793 149.719 168.174ZM209.423 170.843C209.423 172.957 208.07 174.46 206.167 174.46C204.28 174.46 204.391 173.189 206.322 172.684C207.282 172.434 207.873 171.627 207.873 170.568C207.873 169.108 207.531 168.907 205.546 169.198C202.786 169.603 202.543 169.238 204.965 168.324C207.287 167.447 209.423 168.653 209.423 170.843ZM131.708 169.178C131.539 169.685 130.986 170.237 130.48 170.406C129.913 170.595 129.74 170.24 130.029 169.485C130.571 168.076 132.173 167.782 131.708 169.178ZM155.794 169.712C156.584 170.213 156.455 170.466 155.248 170.781C154.379 171.009 153.042 170.719 152.275 170.138C150.981 169.156 151.02 169.08 152.821 169.069C153.887 169.062 155.225 169.351 155.794 169.712ZM164.451 170.549L166.39 171.136L164.302 171.708C162.142 172.3 160.575 171.807 160.575 170.537C160.575 169.704 161.671 169.708 164.451 170.549ZM296.768 173.879C296.177 178.801 296.253 188.662 296.932 195.008C297.222 197.721 297.429 193.441 297.429 184.734C297.429 176.525 297.39 169.809 297.343 169.808C297.295 169.808 297.037 171.64 296.768 173.879ZM148.362 172.284C147.426 173.22 146.39 173.716 146.059 173.385C145.728 173.054 146.134 172.287 146.961 171.683C149.297 169.974 150.259 170.388 148.362 172.284ZM156.848 173.103C155.728 174.223 155.147 174.444 155.147 173.748C155.147 172.636 157.613 170.464 158.204 171.056C158.394 171.246 157.784 172.167 156.848 173.103ZM164.986 174.257C163.794 175.45 163.676 175.454 163.676 174.303C163.676 173.608 164.113 172.883 164.645 172.692C166.229 172.127 166.388 172.855 164.986 174.257ZM185.663 174.141C185.601 175.164 185.863 175.808 186.244 175.572C187.086 175.052 187.159 173.138 186.356 172.642C186.036 172.444 185.724 173.119 185.663 174.141ZM221.579 174.926C221.841 175.608 221.718 176.394 221.304 176.671C220.891 176.947 220.328 177.784 220.052 178.531C219.777 179.277 218.957 179.888 218.229 179.888C217.112 179.888 217.186 179.591 218.706 177.972C220.2 176.383 220.338 175.854 219.522 174.87C218.706 173.888 218.757 173.685 219.82 173.685C220.526 173.685 221.317 174.243 221.579 174.926ZM228.032 174.511C228.032 176.201 226.384 178.336 225.098 178.312C223.935 178.29 223.962 178.14 225.319 177.106C226.171 176.456 226.767 175.421 226.641 174.804C226.517 174.189 226.778 173.685 227.223 173.685C227.668 173.685 228.032 174.057 228.032 174.511ZM168.328 178.337C168.328 178.763 167.826 179.112 167.211 179.112C166.596 179.112 165.878 178.763 165.614 178.337C165.351 177.91 165.854 177.562 166.732 177.562C167.61 177.562 168.328 177.91 168.328 178.337ZM387.349 179.5C387.148 180.14 386.814 181.204 386.606 181.866C386.396 182.536 386.568 182.86 386.993 182.596C387.415 182.336 387.76 181.637 387.76 181.044C387.76 180.45 388.371 179.609 389.117 179.174C390.403 178.425 390.402 178.383 389.093 178.36C388.333 178.348 387.548 178.86 387.349 179.5ZM76.6585 186.869C78.0549 187.721 79.4235 188.417 79.6987 188.417C79.9748 188.417 80.899 189.027 81.7519 189.774C82.6056 190.52 83.0484 190.695 82.7367 190.161C82.3839 189.558 82.6266 189.192 83.3787 189.192C84.0432 189.192 84.5875 188.826 84.5875 188.378C84.5875 187.845 84.1401 187.815 83.2926 188.289C82.3653 188.808 81.0549 188.488 78.6845 187.165C74.6782 184.928 73.0956 184.697 76.6585 186.869ZM96.5081 190.161C96.8733 191.296 96.4508 191.518 93.9323 191.518C92.2265 191.518 90.7672 191.098 90.5687 190.549C90.2904 189.781 89.8624 189.79 88.5047 190.593C87.2424 191.341 86.5205 191.382 85.7591 190.75C84.9984 190.119 84.5735 190.138 84.1494 190.825C83.7997 191.39 83.8997 191.556 84.4014 191.245C84.8573 190.964 85.3474 191.015 85.4908 191.359C85.6335 191.704 87.4727 192.938 89.577 194.103C92.7452 195.857 93.1577 195.95 91.9768 194.645C90.1904 192.671 90.8207 192.657 94.6023 194.587C96.2383 195.422 97.8503 195.857 98.1853 195.556C98.5195 195.254 98.5699 195.399 98.2969 195.878C97.5309 197.219 108.033 200.835 112.246 200.68C113.604 200.631 115.278 201.163 115.985 201.87C117.374 203.26 119.093 203.631 118.316 202.374C118.053 201.947 118.178 201.598 118.594 201.598C119.01 201.598 119.473 201.968 119.624 202.421C119.862 203.132 128.727 203.566 135.762 203.212C137.684 203.116 137.687 203.103 136.145 201.775C135.29 201.038 134.734 200.52 134.911 200.622C135.088 200.725 135.708 200.414 136.29 199.931C137.121 199.242 137.249 199.312 136.888 200.255C136.279 201.841 138.94 202.678 142.48 202.013C144.146 201.701 145.609 201.858 146.289 202.422C146.951 202.972 147.393 203.024 147.393 202.551C147.393 202.119 146.847 201.555 146.181 201.299C145.514 201.043 145.17 200.507 145.417 200.109C145.914 199.304 142.889 198.09 142.172 198.807C141.924 199.055 141.289 198.901 140.761 198.463C140.234 198.025 139.504 197.735 139.139 197.818C137.878 198.103 135.762 196.776 135.762 195.7C135.762 194.034 137.081 194.423 137.553 196.229C137.914 197.608 138.21 197.711 139.634 196.949C140.953 196.243 141.686 196.317 143.202 197.31C145.429 198.77 146.618 198.303 146.618 195.97C146.618 194.679 146.411 194.517 145.687 195.24C144.433 196.494 143.47 196.419 143.973 195.107C144.275 194.322 143.857 194.143 142.386 194.424C141.289 194.633 140.202 195.112 139.97 195.488C139.294 196.582 138.089 196.275 138.089 195.008C138.089 193.513 136.208 193.51 134.717 195.001C133.84 195.878 133.467 195.924 133.17 195.194C132.892 194.51 132.594 194.478 132.138 195.084C131.115 196.445 128.516 196.064 126.996 194.329C125.986 193.176 125.434 192.992 125.018 193.665C124.62 194.309 123.725 194.395 122.144 193.941C120.882 193.579 116.717 193.023 112.89 192.704C109.062 192.384 105.236 191.638 104.388 191.044C103.386 190.342 101.926 190.136 100.222 190.455C98.4125 190.795 97.3626 190.615 96.8354 189.876C96.243 189.044 96.1693 189.108 96.5081 190.161ZM89.622 192.285C89.8934 192.724 89.5825 192.854 88.8924 192.59C87.5494 192.074 87.3036 191.518 88.4186 191.518C88.8203 191.518 89.3615 191.863 89.622 192.285ZM147.177 197.14C146.656 200.481 147.226 200.896 150.688 199.691C153.134 198.84 153.596 198.85 153.596 199.751C153.596 200.341 153.189 200.823 152.691 200.823C152.194 200.823 151.963 200.999 152.178 201.214C152.642 201.678 157.547 200.121 158.584 199.18C158.981 198.819 158.196 198.843 156.84 199.232C154.193 199.99 153.329 198.933 155.922 198.109C156.775 197.838 157.473 197.292 157.473 196.894C157.473 196.496 157.996 196.171 158.636 196.171C159.276 196.171 159.799 195.822 159.799 195.395C159.799 194.944 157.244 194.62 153.684 194.62H147.569L147.177 197.14ZM93.892 196.475C93.892 196.643 94.4332 196.988 95.0954 197.242C95.7855 197.507 96.0964 197.376 95.825 196.937C95.3699 196.2 93.892 195.847 93.892 196.475ZM174.386 196.7C174.945 196.924 175.615 196.896 175.872 196.639C176.129 196.382 175.672 196.199 174.855 196.232C173.951 196.269 173.768 196.453 174.386 196.7ZM183.836 196.946C182.983 197.497 183.499 197.687 185.774 197.655C188.211 197.621 188.543 197.469 187.325 196.946C185.285 196.069 185.193 196.069 183.836 196.946ZM132.333 197.818C132.564 198.191 131.685 198.497 130.381 198.497C129.076 198.497 128.009 198.191 128.009 197.818C128.009 197.445 128.887 197.14 129.961 197.14C131.035 197.14 132.103 197.445 132.333 197.818ZM160.783 198.259C161.538 198.456 162.584 198.442 163.109 198.23C163.634 198.018 163.017 197.857 161.738 197.873C160.458 197.888 160.029 198.062 160.783 198.259ZM424.505 199.602C423.786 201.478 424.752 203.149 426.556 203.149C427.872 203.149 428.136 202.743 427.937 201.024C427.662 198.639 425.258 197.643 424.505 199.602ZM101.646 199.577C101.646 199.744 102.187 200.089 102.849 200.344C103.539 200.608 103.85 200.478 103.579 200.039C103.124 199.302 101.646 198.949 101.646 199.577ZM142.611 200.109L144.679 200.17L142.554 200.946C140.848 201.57 140.16 201.452 139.065 200.347C137.763 199.034 137.765 198.995 139.121 199.509C139.902 199.806 141.472 200.075 142.611 200.109ZM417.194 200.472C416.096 201.794 416.711 203.776 418.423 204.432C420.11 205.081 421.141 203.855 420.612 201.832C420.055 199.702 418.385 199.037 417.194 200.472ZM118.898 200.561C118.365 200.776 117.493 200.776 116.96 200.561C116.427 200.346 116.863 200.17 117.929 200.17C118.995 200.17 119.431 200.346 118.898 200.561ZM298.038 203.537C298.044 205.669 298.195 206.449 298.373 205.27C298.551 204.092 298.546 202.347 298.362 201.394C298.179 200.44 298.033 201.404 298.038 203.537ZM454.443 204.7C454.443 205.553 454.126 206.251 453.74 206.251C453.353 206.251 453.22 205.553 453.443 204.7C453.666 203.847 453.982 203.149 454.146 203.149C454.309 203.149 454.443 203.847 454.443 204.7ZM430.406 206.877C430.406 208.89 432.517 210.653 433.613 209.557C434.918 208.252 434.035 205.885 432.143 205.615C430.854 205.431 430.406 205.757 430.406 206.877ZM127.039 206.764C127.573 206.979 128.445 206.979 128.978 206.764C129.511 206.549 129.075 206.373 128.009 206.373C126.943 206.373 126.507 206.549 127.039 206.764ZM136.393 206.78C136.952 207.004 137.621 206.976 137.878 206.719C138.136 206.461 137.678 206.278 136.861 206.312C135.958 206.349 135.774 206.533 136.393 206.78ZM422.955 207.356C422.235 209.232 423.201 210.903 425.006 210.903C426.321 210.903 426.585 210.497 426.387 208.778C426.111 206.392 423.707 205.397 422.955 207.356ZM298.679 211.129C298.585 215.146 300.833 235.079 301.452 235.715C301.931 236.206 301.023 225.292 299.745 215.167C299.038 209.572 298.742 208.448 298.679 211.129ZM415.179 208.964C414.487 210.769 415.462 212.454 417.201 212.454C418.433 212.454 418.775 211.949 418.775 210.127C418.775 208.306 418.433 207.801 417.201 207.801C416.334 207.801 415.424 208.325 415.179 208.964ZM453.667 208.919C453.667 209.107 453.319 209.476 452.892 209.74C452.466 210.003 452.117 209.849 452.117 209.398C452.117 208.947 452.466 208.577 452.892 208.577C453.319 208.577 453.667 208.73 453.667 208.919ZM429.153 213.572C428.396 215.546 429.21 217.494 430.794 217.494C432.599 217.494 433.264 215.192 431.926 213.579C430.738 212.148 429.7 212.145 429.153 213.572ZM421.619 214.522C419.852 216.287 422.214 220.273 424.273 219.001C425.444 218.277 425.065 214.979 423.752 214.475C422.234 213.892 422.248 213.892 421.619 214.522ZM413.865 216.072C412.853 217.083 413.369 220.049 414.64 220.538C416.473 221.241 417.507 219.887 416.921 217.55C416.445 215.655 414.987 214.95 413.865 216.072ZM428.468 220.983C428.731 221.409 428.553 221.758 428.071 221.758C426.365 221.758 427.636 225.24 429.437 225.495C430.825 225.692 431.181 225.367 431.181 223.906C431.181 222.068 429.91 220.207 428.655 220.207C428.289 220.207 428.204 220.556 428.468 220.983ZM419.497 222.986C418.216 224.53 419.445 226.798 421.563 226.798C423.302 226.798 423.932 224.464 422.621 222.884C421.426 221.443 420.76 221.465 419.497 222.986ZM411.767 224.508C410.669 225.831 411.283 227.812 412.995 228.469C414.682 229.117 415.713 227.892 415.185 225.869C414.627 223.739 412.957 223.074 411.767 224.508ZM425.795 229.85C425.109 230.676 425.092 231.376 425.727 232.564C426.67 234.326 427.167 234.473 428.766 233.46C429.477 233.01 429.669 232.096 429.333 230.758C428.773 228.528 427.222 228.13 425.795 229.85ZM417.657 230.888C416.815 231.73 417.241 233.987 418.426 234.972C419.417 235.794 419.845 235.753 420.859 234.739C421.536 234.063 421.896 233.007 421.661 232.393C421.209 231.215 418.391 230.155 417.657 230.888ZM409.752 233.001C409.059 234.805 410.035 236.49 411.773 236.49C413.362 236.49 413.741 235.316 412.877 233.065C412.281 231.511 410.339 231.471 409.752 233.001ZM379.231 234.94C379.231 235.366 379.078 235.715 378.889 235.715C378.701 235.715 378.332 235.366 378.068 234.94C377.804 234.513 377.959 234.164 378.41 234.164C378.861 234.164 379.231 234.513 379.231 234.94ZM311.773 235.715C311.773 236.141 311.445 236.49 311.044 236.49C310.642 236.49 310.098 236.141 309.835 235.715C309.571 235.288 309.9 234.94 310.564 234.94C311.229 234.94 311.773 235.288 311.773 235.715ZM301.904 239.592C301.904 241.511 302.055 242.296 302.241 241.336C302.425 240.376 302.425 238.807 302.241 237.847C302.055 236.887 301.904 237.673 301.904 239.592ZM459.87 237.489C459.87 238.033 460.771 238.553 461.872 238.644C463.096 238.745 463.758 238.462 463.576 237.915C463.153 236.648 459.87 236.271 459.87 237.489ZM423.704 238.439C423.186 239.79 424.695 241.918 426.172 241.918C427.383 241.918 427.955 240.472 427.476 238.623C427.044 236.959 424.323 236.826 423.704 238.439ZM415.817 240.949C415.992 242.475 416.557 243.152 417.806 243.329C419.29 243.539 419.551 243.221 419.551 241.197C419.551 239.158 419.265 238.816 417.561 238.816C415.848 238.816 415.605 239.113 415.817 240.949ZM408.889 240.44C407.068 241.122 406.83 241.747 407.615 243.793C408.184 245.277 410.915 245.423 411.461 244C411.677 243.438 411.578 242.261 411.243 241.384C410.757 240.111 410.281 239.92 408.889 240.44ZM421.877 247.679C421.877 249.302 422.247 249.672 423.87 249.672C425.492 249.672 425.816 249.348 425.614 247.927C425.455 246.806 424.743 246.094 423.622 245.934C422.201 245.733 421.877 246.057 421.877 247.679ZM413.731 247.353C412.896 248.705 414.163 251.222 415.68 251.222C417.528 251.222 418.235 250.083 417.61 248.114C417.098 246.5 414.565 246.003 413.731 247.353ZM442.55 250.641C442.335 251.174 442.159 250.738 442.159 249.672C442.159 248.606 442.335 248.17 442.55 248.702C442.766 249.236 442.766 250.108 442.55 250.641ZM405.737 251.029C405.913 252.562 406.417 253.161 407.532 253.161C408.647 253.161 409.152 252.562 409.328 251.029C409.541 249.18 409.302 248.896 407.532 248.896C405.763 248.896 405.523 249.18 405.737 251.029ZM416.449 249.672C416.449 250.098 416.1 250.447 415.674 250.447C415.247 250.447 414.899 250.098 414.899 249.672C414.899 249.245 415.247 248.896 415.674 248.896C416.1 248.896 416.449 249.245 416.449 249.672ZM407.92 251.998C407.92 252.424 407.767 252.773 407.578 252.773C407.39 252.773 407.021 252.424 406.757 251.998C406.493 251.571 406.648 251.222 407.099 251.222C407.55 251.222 407.92 251.571 407.92 251.998ZM441.358 253.756C440.591 254.515 440.503 254.426 440.923 253.321C441.215 252.557 441.648 252.127 441.887 252.365C442.126 252.603 441.888 253.229 441.358 253.756ZM420.357 253.899C419.069 255.451 420.09 258.201 421.954 258.201C423.887 258.201 424.573 256.464 423.46 254.384C422.444 252.486 421.635 252.359 420.357 253.899ZM412.161 256.723C411.555 258.634 412.296 259.752 414.169 259.752C415.237 259.752 415.674 259.216 415.674 257.904C415.674 255.523 412.845 254.571 412.161 256.723ZM447.476 260.794C447.483 261.287 447.827 262.213 448.24 262.853C448.89 263.859 448.993 263.842 449.004 262.724C449.01 262.013 449.442 261.289 449.964 261.116C450.487 260.941 450.138 260.596 449.189 260.348C448.138 260.073 447.469 260.247 447.476 260.794ZM442.507 265.631C442.248 266.305 442.037 267.698 442.037 268.727C442.037 270.229 442.381 270.545 443.781 270.331C444.74 270.184 445.465 269.832 445.391 269.548C445.317 269.263 445.027 267.989 444.747 266.717C444.191 264.181 443.241 263.719 442.507 265.631ZM446.351 266.957C446.643 267.722 447.076 268.152 447.315 267.913C447.554 267.675 447.316 267.049 446.785 266.523C446.019 265.763 445.931 265.852 446.351 266.957ZM444.858 271.77C444.596 272.453 444.848 272.933 445.467 272.933C446.048 272.933 446.724 272.41 446.97 271.77C447.232 271.087 446.98 270.607 446.36 270.607C445.779 270.607 445.103 271.13 444.858 271.77ZM442.466 272.717C442.027 273.861 441.85 273.889 441.232 272.911C440.835 272.283 440.505 272.137 440.498 272.584C440.491 273.032 440.905 273.817 441.416 274.329C442.14 275.052 442.083 275.259 441.159 275.259C440.477 275.259 439.616 276.414 439.138 277.973C438.68 279.466 438.534 280.681 438.814 280.675C439.649 280.656 441.399 279.389 441.327 278.855C441.107 277.208 441.456 276.81 443.117 276.81C445.441 276.81 446.379 274.786 444.306 274.244C443.315 273.985 442.966 273.432 443.28 272.617C443.54 271.938 443.579 271.382 443.366 271.382C443.153 271.382 442.748 271.983 442.466 272.717ZM287.401 279.524C286.995 278.104 287.083 278.12 288.441 279.718C289.256 280.678 290.478 281.462 291.156 281.462C291.834 281.462 292.389 281.832 292.389 282.283C292.389 282.735 291.953 282.883 291.42 282.614C290.887 282.344 291.113 282.661 291.922 283.318C293.344 284.475 293.325 284.541 291.34 285.296C290.212 285.724 289.273 286.521 289.255 287.064C289.236 287.608 288.189 288.909 286.929 289.955C285.667 291.001 284.635 292.31 284.635 292.863C284.635 294.993 283.119 293.731 282.35 290.961C280.966 285.978 281.306 283.198 283.472 281.779C284.538 281.08 285.423 279.763 285.438 278.853C285.464 277.281 285.525 277.295 286.655 279.136C287.533 280.568 287.728 280.669 287.401 279.524ZM437.384 283.013C437.384 283.985 438.207 283.985 439.711 283.013C440.651 282.405 440.539 282.259 439.129 282.249C438.17 282.243 437.384 282.587 437.384 283.013ZM383.601 289.392C382.837 292.244 383.01 296.774 383.833 295.473C384.219 294.864 385.088 294.284 385.764 294.185C386.439 294.085 386.792 294.328 386.548 294.724C386.303 295.12 385.69 295.197 385.187 294.895C384.683 294.593 384.762 294.951 385.363 295.69C386.441 297.019 388.005 296.43 388.245 294.605C388.298 294.2 388.385 293.651 388.439 293.386C388.492 293.12 389.064 293.341 389.708 293.876C390.595 294.613 390.668 295.106 390.008 295.901C389.528 296.48 388.772 296.728 388.328 296.453C387.884 296.18 387.744 296.316 388.018 296.758C388.291 297.2 389.951 297.582 391.707 297.606C393.462 297.63 395.492 298.187 396.217 298.843C398.424 300.84 404.043 300.824 404.043 298.821C404.043 297.873 403.482 297.651 401.736 297.908C399.889 298.179 399.599 298.041 400.28 297.22C402.761 294.232 406.452 298.042 404.283 301.352C403.214 302.982 403.255 303.012 405.78 302.443C407.208 302.121 409.224 302.171 410.262 302.555C411.67 303.076 412.37 302.948 413.027 302.049C413.986 300.738 415.289 300.363 414.511 301.622C413.97 302.496 414.945 302.628 416.769 301.928C417.441 301.671 417.798 301.147 417.562 300.765C417.015 299.88 418.83 299.884 420.232 300.772C421.55 301.607 420.679 303.26 419.217 302.698C418.633 302.475 417.926 302.664 417.645 303.12C417.348 303.601 417.777 303.948 418.666 303.948C420.781 303.948 422.652 303.155 422.652 302.259C422.652 301.253 420.64 299.296 419.606 299.296C419.149 299.296 418.775 298.958 418.775 298.545C418.775 298.132 418.34 297.958 417.806 298.158C417.274 298.359 416.242 297.475 415.516 296.196C414.79 294.916 413.81 293.868 413.338 293.868C412.866 293.868 412.696 294.217 412.96 294.644C413.232 295.083 412.58 295.419 411.455 295.419C409.203 295.419 408.775 294.177 410.828 293.602C411.574 293.392 411.138 293.338 409.859 293.481C408.579 293.624 407.183 293.774 406.757 293.816C406.331 293.858 406.505 294.268 407.145 294.729C408.112 295.424 408.069 295.488 406.887 295.104C406.107 294.851 404.798 294.644 403.98 294.644C402.482 294.644 401.823 292.401 403.268 292.221C403.694 292.167 404.392 292.036 404.819 291.93C405.245 291.824 405.943 291.693 406.369 291.639C407.733 291.468 407.235 288.441 405.843 288.441C403.213 288.441 399.348 290.317 399.518 291.512C399.792 293.432 398.657 296.012 397.314 296.528C395.62 297.178 393.033 296.271 393.406 295.159C393.695 294.299 394.126 294.164 397.259 293.957C398.005 293.909 398.616 293.361 398.616 292.742C398.616 291.434 393.639 288.845 392.489 289.556C390.755 290.629 385.978 290.234 385.032 288.94C384.158 287.744 384.032 287.785 383.601 289.392ZM388.794 294.997C388.794 295.618 389.091 295.943 389.453 295.719C389.815 295.495 389.911 294.987 389.665 294.59C389.039 293.576 388.794 293.69 388.794 294.997ZM413.346 299.081C413.912 299.58 410.828 301.686 409.956 301.396C409.549 301.261 408.719 300.4 408.111 299.484C407.032 297.861 407.077 297.831 409.983 298.28C411.62 298.533 413.134 298.893 413.346 299.081ZM391.305 300.514C389.61 302.21 389.751 302.406 392.444 302.093C395.182 301.774 395.87 301.275 395.158 300.123C394.422 298.931 392.714 299.105 391.305 300.514ZM406.524 304.103C405.012 305.615 405.444 306.274 407.947 306.274C410.06 306.274 410.216 306.116 409.471 304.724C408.516 302.939 407.832 302.795 406.524 304.103ZM396.776 306.684C396.508 307.382 396.289 308.038 396.289 308.142C396.289 308.246 397.352 308.176 398.649 307.986C401.236 307.606 401.371 306.025 398.847 305.652C397.932 305.516 397.057 305.953 396.776 306.684ZM388.31 307.534C386.973 308.87 387.873 309.866 390.12 309.536C391.418 309.346 392.35 308.796 392.192 308.314C391.854 307.287 389.108 306.736 388.31 307.534ZM365.231 310.07C365.814 311.159 365.722 311.783 364.88 312.484C363.964 313.243 363.645 313.175 363.245 312.132C362.971 311.42 362.27 311.021 361.685 311.245C360.191 311.819 360.362 310.907 361.979 309.68C363.812 308.289 364.31 308.348 365.231 310.07ZM356.745 310.151C356.745 310.578 356.134 310.921 355.388 310.915C354.228 310.905 354.2 310.793 355.194 310.151C356.658 309.205 356.745 309.205 356.745 310.151ZM373.524 312.269C373.903 313.717 377.68 318.628 377.68 317.672C377.68 317.254 374.18 311.821 373.424 311.064C373.264 310.904 373.31 311.446 373.524 312.269ZM402.782 312.066C402.145 313.725 402.589 314.061 404.691 313.511C405.649 313.26 406.303 312.663 406.143 312.185C405.676 310.783 403.307 310.699 402.782 312.066ZM393.741 312.959C392.314 314.386 393.324 315.579 395.958 315.579C398.178 315.579 398.678 315.309 398.472 314.222C398.21 312.841 394.775 311.924 393.741 312.959ZM266.755 325.077C267.138 326.037 267.661 327.482 267.919 328.29C268.178 329.097 268.575 329.571 268.803 329.343C269.267 328.879 267.114 323.333 266.469 323.333C266.244 323.333 266.373 324.117 266.755 325.077ZM303.626 327.201C303.898 327.64 303.587 327.77 302.897 327.506C301.554 326.99 301.308 326.434 302.423 326.434C302.825 326.434 303.366 326.779 303.626 327.201ZM269.127 330.604C269.127 330.765 269.738 331.376 270.484 331.961C271.714 332.925 271.741 332.898 270.777 331.668C269.764 330.376 269.127 329.966 269.127 330.604ZM272.229 334.77C272.229 335.687 283.139 346.594 284.056 346.594C284.443 346.594 282.82 344.821 280.448 342.653C278.076 340.486 275.257 337.667 274.182 336.391C273.108 335.114 272.229 334.384 272.229 334.77ZM285.41 347.182C285.41 347.507 286.195 348.254 287.155 348.843C288.893 349.911 288.894 349.909 287.422 348.255C285.842 346.478 285.41 346.248 285.41 347.182ZM310.998 351.246C310.998 351.673 310.263 352.022 309.364 352.022C308.231 352.022 307.867 352.377 308.177 353.185C308.422 353.824 308.314 354.348 307.937 354.348C307.559 354.348 307.103 353.912 306.924 353.379C306.668 352.617 306.329 352.632 305.342 353.445C304.652 354.015 303.723 354.256 303.278 353.981C302.833 353.706 302.469 353.81 302.469 354.213C302.469 356.271 318.745 355.697 322.629 353.502C324.325 352.543 320.617 352.574 318.824 353.534C317.8 354.082 316.729 353.783 314.651 352.371C311.565 350.273 310.998 350.099 310.998 351.246ZM314.487 353.572C314.223 353.999 313.069 354.313 311.921 354.27L309.835 354.193L311.773 353.572C314.525 352.691 315.032 352.691 314.487 353.572Z" fill="#131313"/>
</svg>
