<svg width="306" height="39" viewBox="0 0 306 39" fill="none" xmlns="http://www.w3.org/2000/svg">
<path d="M0.84 39C1.13867 39 1.43733 38.7013 1.736 38.104C2.03467 37.5067 2.184 36.5253 2.184 35.16V4.44C2.184 3.07467 2.03467 2.11466 1.736 1.56C1.43733 0.962664 1.13867 0.642665 0.84 0.599998H10.696C10.3973 0.599998 10.0987 0.898665 9.8 1.496C9.50133 2.09333 9.352 3.096 9.352 4.504V14.936C9.352 15.8747 9.45867 16.4293 9.672 16.6C9.928 16.7707 10.696 16.856 11.976 16.856H31.112C32.392 16.856 33.1387 16.792 33.352 16.664C33.5653 16.4933 33.672 15.9173 33.672 14.936V4.44C33.672 3.07467 33.5227 2.11466 33.224 1.56C32.9253 0.962664 32.6267 0.642665 32.328 0.599998H42.184C41.8853 0.599998 41.5867 0.898665 41.288 1.496C40.9893 2.09333 40.84 3.096 40.84 4.504V35.16C40.84 36.5253 40.9893 37.5067 41.288 38.104C41.5867 38.7013 41.8853 39 42.184 39H32.328C32.6267 39 32.9253 38.7013 33.224 38.104C33.5227 37.5067 33.672 36.5253 33.672 35.16V23.896C33.672 22.9147 33.544 22.36 33.288 22.232C33.0747 22.0613 32.3493 21.976 31.112 21.976H11.976C10.696 21.976 9.928 22.0613 9.672 22.232C9.45867 22.4027 9.352 22.9573 9.352 23.896V35.16C9.352 36.5253 9.50133 37.5067 9.8 38.104C10.0987 38.7013 10.3973 39 10.696 39H0.84ZM46.512 39C46.6827 39 46.9813 38.7013 47.408 38.104C47.8347 37.5067 48.3893 36.504 49.072 35.096C49.3707 34.456 49.8827 33.368 50.608 31.832C51.3333 30.296 52.1867 28.4827 53.168 26.392C54.1493 24.3013 55.1733 22.1253 56.24 19.864C57.3067 17.56 58.3093 15.3627 59.248 13.272C60.2293 11.1813 61.0827 9.34666 61.808 7.768C62.5333 6.18933 63.0453 5.08 63.344 4.44C63.9413 3.07467 64.2613 2.09333 64.304 1.496C64.3467 0.898665 64.2613 0.599998 64.048 0.599998H75.248C75.0773 0.599998 75.0133 0.898665 75.056 1.496C75.0987 2.09333 75.3973 3.07467 75.952 4.44C76.2507 5.08 76.7413 6.18933 77.424 7.768C78.1067 9.304 78.9173 11.1173 79.856 13.208C80.8373 15.2987 81.84 17.4747 82.864 19.736C83.888 21.9547 84.8907 24.1093 85.872 26.2C86.8533 28.2907 87.7067 30.1253 88.432 31.704C89.1573 33.2827 89.6907 34.4133 90.032 35.096C90.7147 36.504 91.3333 37.5067 91.888 38.104C92.4853 38.7013 92.9333 39 93.232 39H81.392C81.8187 38.9147 82.16 38.5733 82.416 37.976C82.7147 37.3787 82.672 36.4187 82.288 35.096C82.2027 34.7547 82.0533 34.264 81.84 33.624C81.6267 32.984 81.4347 32.5147 81.264 32.216C81.008 31.6187 80.752 31.192 80.496 30.936C80.24 30.68 79.8987 30.5093 79.472 30.424C79.088 30.3387 78.5333 30.296 77.808 30.296H61.424C60.6133 30.296 59.9733 30.3387 59.504 30.424C59.0347 30.4667 58.672 30.616 58.416 30.872C58.2027 31.128 57.9893 31.5547 57.776 32.152C57.6053 32.664 57.4347 33.176 57.264 33.688C57.0933 34.2 56.9653 34.6693 56.88 35.096C56.496 36.504 56.3893 37.5067 56.56 38.104C56.7307 38.7013 56.9653 39 57.264 39H46.512ZM63.088 25.176H75.952C77.1893 25.176 77.872 25.0693 78 24.856C78.128 24.6427 78.064 24.1733 77.808 23.448C77.2533 22.0827 76.6133 20.6107 75.888 19.032C75.1627 17.4107 74.416 15.8107 73.648 14.232C72.9227 12.6107 72.1973 11.0747 71.472 9.624C70.7893 8.13067 70.192 6.82933 69.68 5.72H69.552C68.656 7.59733 67.7387 9.56 66.8 11.608C65.8613 13.6133 64.9653 15.512 64.112 17.304C63.3013 19.0533 62.64 20.4827 62.128 21.592C61.616 22.7013 61.36 23.256 61.36 23.256C61.0613 23.9387 60.9547 24.4293 61.04 24.728C61.168 25.0267 61.8507 25.176 63.088 25.176ZM97.34 39C97.6387 39 97.9373 38.7013 98.236 38.104C98.5347 37.5067 98.684 36.5253 98.684 35.16V4.44C98.684 3.07467 98.5347 2.11466 98.236 1.56C97.9373 0.962664 97.6387 0.642665 97.34 0.599998H109.18C109.095 0.599998 109.137 0.898665 109.308 1.496C109.479 2.09333 109.884 3.11733 110.524 4.568C110.78 5.12266 111.228 6.104 111.868 7.512C112.551 8.92 113.361 10.6053 114.3 12.568C115.239 14.488 116.241 16.5573 117.308 18.776C118.375 20.9947 119.463 23.256 120.572 25.56C121.681 27.8213 122.727 29.9547 123.708 31.96H123.772C124.796 29.912 125.863 27.7573 126.972 25.496C128.081 23.192 129.191 20.9093 130.3 18.648C131.409 16.3867 132.433 14.296 133.372 12.376C134.311 10.4133 135.1 8.74933 135.74 7.384C136.423 5.976 136.892 4.99467 137.148 4.44C137.745 3.07467 138.129 2.09333 138.3 1.496C138.513 0.898665 138.577 0.599998 138.492 0.599998H150.268C149.969 0.599998 149.671 0.898665 149.372 1.496C149.073 2.09333 148.924 3.096 148.924 4.504V35.16C148.924 36.5253 149.073 37.5067 149.372 38.104C149.671 38.7013 149.969 39 150.268 39H140.476C140.775 39 141.052 38.7013 141.308 38.104C141.607 37.5067 141.756 36.5253 141.756 35.16V8.664H141.628C140.732 10.456 139.772 12.376 138.748 14.424C137.767 16.472 136.764 18.5413 135.74 20.632C134.716 22.68 133.756 24.664 132.86 26.584C131.964 28.4613 131.153 30.1467 130.428 31.64C129.745 33.1333 129.212 34.3067 128.828 35.16C128.231 36.4827 127.911 37.4427 127.868 38.04C127.868 38.6373 127.975 38.9573 128.188 39H119.228C119.441 39 119.548 38.7227 119.548 38.168C119.548 37.5707 119.228 36.568 118.588 35.16C118.289 34.4347 117.799 33.368 117.116 31.96C116.433 30.552 115.644 28.9093 114.748 27.032C113.895 25.112 112.956 23.1067 111.932 21.016C110.908 18.8827 109.884 16.7493 108.86 14.616C107.879 12.4827 106.94 10.4987 106.044 8.664H105.852V35.16C105.852 36.5253 106.001 37.5067 106.3 38.104C106.599 38.7013 106.897 39 107.196 39H97.34ZM157.965 39C158.264 39 158.562 38.7013 158.861 38.104C159.16 37.5067 159.309 36.5253 159.309 35.16V4.44C159.309 3.07467 159.16 2.11466 158.861 1.56C158.562 0.962664 158.264 0.642665 157.965 0.599998H169.805C169.72 0.599998 169.762 0.898665 169.933 1.496C170.104 2.09333 170.509 3.11733 171.149 4.568C171.405 5.12266 171.853 6.104 172.493 7.512C173.176 8.92 173.986 10.6053 174.925 12.568C175.864 14.488 176.866 16.5573 177.933 18.776C179 20.9947 180.088 23.256 181.197 25.56C182.306 27.8213 183.352 29.9547 184.333 31.96H184.397C185.421 29.912 186.488 27.7573 187.597 25.496C188.706 23.192 189.816 20.9093 190.925 18.648C192.034 16.3867 193.058 14.296 193.997 12.376C194.936 10.4133 195.725 8.74933 196.365 7.384C197.048 5.976 197.517 4.99467 197.773 4.44C198.37 3.07467 198.754 2.09333 198.925 1.496C199.138 0.898665 199.202 0.599998 199.117 0.599998H210.893C210.594 0.599998 210.296 0.898665 209.997 1.496C209.698 2.09333 209.549 3.096 209.549 4.504V35.16C209.549 36.5253 209.698 37.5067 209.997 38.104C210.296 38.7013 210.594 39 210.893 39H201.101C201.4 39 201.677 38.7013 201.933 38.104C202.232 37.5067 202.381 36.5253 202.381 35.16V8.664H202.253C201.357 10.456 200.397 12.376 199.373 14.424C198.392 16.472 197.389 18.5413 196.365 20.632C195.341 22.68 194.381 24.664 193.485 26.584C192.589 28.4613 191.778 30.1467 191.053 31.64C190.37 33.1333 189.837 34.3067 189.453 35.16C188.856 36.4827 188.536 37.4427 188.493 38.04C188.493 38.6373 188.6 38.9573 188.813 39H179.853C180.066 39 180.173 38.7227 180.173 38.168C180.173 37.5707 179.853 36.568 179.213 35.16C178.914 34.4347 178.424 33.368 177.741 31.96C177.058 30.552 176.269 28.9093 175.373 27.032C174.52 25.112 173.581 23.1067 172.557 21.016C171.533 18.8827 170.509 16.7493 169.485 14.616C168.504 12.4827 167.565 10.4987 166.669 8.664H166.477V35.16C166.477 36.5253 166.626 37.5067 166.925 38.104C167.224 38.7013 167.522 39 167.821 39H157.965ZM218.59 39C218.889 39 219.187 38.7013 219.486 38.104C219.785 37.5067 219.934 36.5253 219.934 35.16V4.44C219.934 3.07467 219.785 2.11466 219.486 1.56C219.187 0.962664 218.889 0.642665 218.59 0.599998H254.622V1.88L255.902 8.024C254.835 7.55466 252.958 7.064 250.27 6.552C247.582 5.99733 244.339 5.72 240.542 5.72H229.726C228.446 5.72 227.678 5.82666 227.422 6.04C227.209 6.21066 227.102 6.744 227.102 7.64V14.936C227.102 15.8747 227.209 16.4293 227.422 16.6C227.678 16.7707 228.425 16.856 229.662 16.856H240.222C242.697 16.856 244.681 16.728 246.174 16.472C247.71 16.1733 248.713 15.8747 249.182 15.576C249.011 16.1307 248.819 16.792 248.606 17.56C248.393 18.328 248.222 19.096 248.094 19.864C247.966 20.632 247.902 21.336 247.902 21.976H229.662C228.425 21.976 227.678 22.0613 227.422 22.232C227.209 22.36 227.102 22.9147 227.102 23.896V31.832C227.102 32.8133 227.209 33.3893 227.422 33.56C227.635 33.7307 228.382 33.816 229.662 33.816H248.286C250.761 33.816 252.745 33.5387 254.238 32.984C255.774 32.3867 256.777 31.8107 257.246 31.256L255.966 37.016V39H218.59ZM262.404 39C262.703 39 262.98 38.7013 263.236 38.104C263.535 37.5067 263.684 36.5253 263.684 35.16V4.44C263.684 3.07467 263.535 2.11466 263.236 1.56C262.937 0.962664 262.639 0.642665 262.34 0.599998H283.332C287.3 0.599998 290.393 1.09067 292.612 2.072C294.831 3.01067 296.388 4.376 297.284 6.168C298.223 7.91733 298.692 10.0507 298.692 12.568C298.692 14.1467 298.351 15.704 297.668 17.24C296.985 18.776 295.876 20.0987 294.34 21.208C292.847 22.3173 290.82 23.0427 288.26 23.384V23.576C291.119 24.344 293.572 25.752 295.62 27.8C297.711 29.848 299.503 32.088 300.996 34.52C301.977 36.0987 302.873 37.2293 303.684 37.912C304.495 38.5947 305.113 38.9573 305.54 39H292.1C292.612 38.9573 293.017 38.68 293.316 38.168C293.657 37.6133 293.551 36.7173 292.996 35.48C292.1 33.432 290.82 31.6187 289.156 30.04C287.535 28.4187 285.487 27.16 283.012 26.264C280.537 25.3253 277.593 24.856 274.18 24.856H273.476C272.153 24.856 271.385 24.9627 271.172 25.176C270.959 25.3893 270.852 25.9227 270.852 26.776V35.16C270.852 36.5253 271.001 37.5067 271.3 38.104C271.599 38.7013 271.897 39 272.196 39H262.404ZM273.476 19.736H281.348C284.761 19.736 287.321 19.1387 289.028 17.944C290.735 16.7067 291.588 14.9147 291.588 12.568C291.588 10.9893 291.247 9.70933 290.564 8.728C289.924 7.704 288.9 6.95733 287.492 6.488C286.084 6.01866 284.249 5.784 281.988 5.784H273.476C272.153 5.784 271.385 5.848 271.172 5.976C270.959 6.104 270.852 6.59467 270.852 7.448V18.008C270.852 18.8613 270.959 19.3733 271.172 19.544C271.385 19.672 272.153 19.736 273.476 19.736Z" fill="black"/>
</svg>
