<svg width="671" height="958" viewBox="0 0 671 958" fill="none" xmlns="http://www.w3.org/2000/svg">
<path d="M585 78C772.245 160.393 289.283 366.69 176 122C62.7168 -122.69 -77.4532 48.0792 110 236C297.453 423.921 462.79 390.139 592 303C721.21 215.861 652.918 495.215 585 428C517.081 360.785 274.272 500.045 181 454C87.7278 407.955 -75.3005 463.247 42.0001 492C159.301 520.753 157.752 505.745 123 584C88.2482 662.255 396.513 390.313 615 600C833.486 809.687 329.885 490.868 284 777C238.115 1063.13 -125.636 946.466 99 847" stroke="white"/>
</svg>
