<svg width="208" height="36" viewBox="0 0 208 36" fill="none" xmlns="http://www.w3.org/2000/svg">
<path d="M8.712 4.328C8.2 4.328 7.656 4.392 7.08 4.52C6.504 4.616 5.976 4.744 5.496 4.904C4.92 5.064 4.36 5.24 3.816 5.432V18.152H8.712C10.888 18.152 12.632 17.56 13.944 16.376C15.256 15.16 15.912 13.368 15.912 11C15.912 8.664 15.24 6.968 13.896 5.912C12.552 4.856 10.824 4.328 8.712 4.328ZM9.096 0.919998C10.44 0.919998 11.72 1.16 12.936 1.64C14.152 2.12 15.224 2.808 16.152 3.704C17.08 4.568 17.816 5.624 18.36 6.872C18.936 8.088 19.224 9.464 19.224 11C19.224 12.536 18.968 13.96 18.456 15.272C17.944 16.552 17.224 17.672 16.296 18.632C15.4 19.56 14.328 20.28 13.08 20.792C11.832 21.304 10.488 21.56 9.048 21.56H3.768V35H0.6V2.888C1.464 2.536 2.376 2.216 3.336 1.928C4.168 1.672 5.08 1.448 6.072 1.256C7.064 1.032 8.072 0.919998 9.096 0.919998ZM36.2239 4.328C35.7119 4.328 35.1679 4.392 34.5919 4.52C34.0159 4.616 33.4879 4.728 33.0079 4.856C32.4319 5.016 31.8719 5.192 31.3279 5.384V18.104H36.2239C38.3999 18.104 40.1439 17.464 41.4559 16.184C42.7679 14.904 43.4239 13.064 43.4239 10.664C43.4239 9.512 43.2479 8.536 42.8959 7.736C42.5439 6.904 42.0479 6.248 41.4079 5.768C40.7679 5.256 39.9999 4.888 39.1039 4.664C38.2399 4.44 37.2799 4.328 36.2239 4.328ZM47.3119 35H44.0479L38.1919 21.416C37.9359 21.448 37.6639 21.48 37.3759 21.512C37.0879 21.512 36.8159 21.512 36.5599 21.512H31.2799V35H28.1119V2.888C29.0079 2.536 29.9359 2.216 30.8959 1.928C31.7279 1.672 32.6399 1.448 33.6319 1.256C34.6239 1.032 35.6159 0.919998 36.6079 0.919998C37.9519 0.919998 39.2319 1.144 40.4479 1.592C41.6639 2.008 42.7359 2.648 43.6639 3.512C44.5919 4.344 45.3279 5.368 45.8719 6.584C46.4479 7.768 46.7359 9.128 46.7359 10.664C46.7359 11.72 46.6079 12.76 46.3519 13.784C46.0959 14.776 45.7279 15.72 45.2479 16.616C44.7999 17.48 44.2399 18.248 43.5679 18.92C42.9279 19.592 42.2239 20.12 41.4559 20.504L47.3119 35ZM71.2571 10.04C71.2571 8.856 71.0331 7.912 70.5851 7.208C70.1371 6.472 69.5771 5.912 68.9051 5.528C68.2651 5.112 67.5931 4.84 66.8891 4.712C66.1851 4.584 65.5931 4.52 65.1131 4.52C64.6331 4.52 64.0411 4.6 63.3371 4.76C62.6331 4.888 61.9611 5.16 61.3211 5.576C60.6811 5.96 60.1211 6.52 59.6411 7.256C59.1931 7.96 58.9691 8.904 58.9691 10.088V26.6C58.9691 27.816 59.1931 28.776 59.6411 29.48C60.1211 30.152 60.6811 30.68 61.3211 31.064C61.9611 31.416 62.6331 31.64 63.3371 31.736C64.0411 31.832 64.6331 31.88 65.1131 31.88C65.5931 31.88 66.1851 31.832 66.8891 31.736C67.5931 31.608 68.2651 31.368 68.9051 31.016C69.5771 30.632 70.1371 30.104 70.5851 29.432C71.0331 28.728 71.2571 27.784 71.2571 26.6V10.04ZM74.4731 26.6C74.4731 27.304 74.3291 28.168 74.0411 29.192C73.7851 30.184 73.2891 31.144 72.5531 32.072C71.8491 33 70.8891 33.8 69.6731 34.472C68.4571 35.112 66.9211 35.432 65.0651 35.432C63.2411 35.432 61.7371 35.112 60.5531 34.472C59.3691 33.8 58.4091 33 57.6731 32.072C56.9691 31.144 56.4731 30.184 56.1851 29.192C55.8971 28.168 55.7531 27.304 55.7531 26.6V10.088C55.7531 9.384 55.8811 8.52 56.1371 7.496C56.4251 6.44 56.9211 5.432 57.6251 4.472C58.3291 3.512 59.2891 2.696 60.5051 2.024C61.7211 1.32 63.2571 0.967998 65.1131 0.967998C66.9371 0.967998 68.4411 1.304 69.6251 1.976C70.8411 2.648 71.8011 3.464 72.5051 4.424C73.2411 5.384 73.7531 6.392 74.0411 7.448C74.3291 8.472 74.4731 9.336 74.4731 10.04V26.6ZM84.7226 2.888C86.7386 2.056 88.4026 1.528 89.7146 1.304C91.0266 1.048 91.9066 0.919998 92.3546 0.919998C93.6346 0.919998 94.8026 1.192 95.8586 1.736C96.9466 2.248 97.8906 2.968 98.6906 3.896C99.4906 4.792 100.115 5.832 100.563 7.016C101.011 8.2 101.235 9.464 101.235 10.808V25.976C101.235 27.32 100.979 28.584 100.467 29.768C99.9546 30.92 99.2666 31.928 98.4026 32.792C97.5386 33.624 96.5306 34.28 95.3786 34.76C94.2586 35.24 93.0746 35.48 91.8266 35.48C91.5706 35.48 91.2666 35.464 90.9146 35.432C90.5626 35.4 90.0986 35.32 89.5226 35.192C88.9786 35.096 88.3066 34.936 87.5066 34.712C86.7386 34.456 85.8106 34.104 84.7226 33.656V2.888ZM97.7306 10.808C97.7306 9.464 97.4266 8.296 96.8186 7.304C96.2106 6.28 95.5546 5.528 94.8506 5.048C94.4986 4.792 94.0826 4.616 93.6026 4.52C93.1226 4.392 92.7066 4.328 92.3546 4.328C91.6826 4.328 90.9466 4.472 90.1466 4.76C89.3786 5.016 88.6586 5.288 87.9866 5.576V31.064C89.1066 31.512 89.9706 31.784 90.5786 31.88C91.2186 31.976 91.6986 32.024 92.0186 32.024H92.2106C92.9466 32.024 93.6506 31.848 94.3226 31.496C94.9946 31.144 95.5866 30.664 96.0986 30.056C96.6426 29.448 97.0586 28.76 97.3466 27.992C97.6666 27.224 97.8266 26.408 97.8266 25.544L97.7306 10.808ZM120.942 32.312C121.486 32.312 122.11 32.232 122.814 32.072C123.55 31.912 124.238 31.624 124.878 31.208C125.518 30.76 126.046 30.168 126.462 29.432C126.91 28.696 127.134 27.736 127.134 26.552V1.352H130.206V26.552C130.206 27.48 130.062 28.472 129.774 29.528C129.486 30.552 128.99 31.496 128.286 32.36C127.582 33.224 126.622 33.944 125.406 34.52C124.222 35.064 122.734 35.336 120.942 35.336C119.15 35.336 117.662 35.064 116.478 34.52C115.294 33.944 114.334 33.224 113.598 32.36C112.894 31.496 112.398 30.552 112.11 29.528C111.822 28.472 111.678 27.48 111.678 26.552V1.352H114.798V26.552C114.798 27.736 115.006 28.696 115.422 29.432C115.838 30.168 116.35 30.76 116.958 31.208C117.566 31.624 118.222 31.912 118.926 32.072C119.662 32.232 120.334 32.312 120.942 32.312ZM143.846 25.832C143.846 26.792 144.006 27.656 144.326 28.424C144.646 29.192 145.078 29.848 145.622 30.392C146.166 30.936 146.79 31.368 147.494 31.688C148.23 31.976 148.982 32.136 149.75 32.168C149.974 32.168 150.198 32.152 150.422 32.12C150.646 32.088 150.918 32.024 151.238 31.928C151.59 31.8 152.022 31.64 152.534 31.448C153.046 31.256 153.702 31 154.502 30.68L156.038 30.008L157.334 33.32L153.158 34.808C152.614 35 152.022 35.16 151.382 35.288C150.742 35.416 150.198 35.48 149.75 35.48C148.534 35.48 147.366 35.272 146.246 34.856C145.158 34.408 144.198 33.784 143.366 32.984C142.534 32.152 141.878 31.16 141.398 30.008C140.918 28.824 140.678 27.512 140.678 26.072V10.856C140.678 9.544 140.918 8.296 141.398 7.112C141.878 5.896 142.406 4.968 142.982 4.328C143.494 3.72 143.942 3.256 144.326 2.936C144.742 2.616 145.158 2.328 145.574 2.072L145.814 1.976L145.67 2.024C146.022 1.832 146.518 1.608 147.158 1.352C147.83 1.064 148.726 0.919998 149.846 0.919998C150.326 0.919998 150.886 0.999998 151.526 1.16C152.166 1.32 152.726 1.48 153.206 1.64L157.238 3.176L156.134 6.296L151.718 4.616C151.398 4.488 151.078 4.376 150.758 4.28C150.438 4.184 150.15 4.136 149.894 4.136C149.094 4.136 148.326 4.328 147.59 4.712C146.886 5.096 146.262 5.608 145.718 6.248C145.174 6.856 144.742 7.56 144.422 8.36C144.102 9.16 143.942 9.992 143.942 10.856L143.846 25.832ZM182.026 4.616H174.49V35H171.274V4.616H163.498V1.4H182.026V4.616ZM207.707 25.016C207.707 26.36 207.467 27.64 206.987 28.856C206.507 30.072 205.851 31.128 205.019 32.024C204.187 32.92 203.211 33.64 202.091 34.184C200.971 34.696 199.755 34.952 198.443 34.952C197.195 34.952 195.963 34.792 194.747 34.472C193.531 34.12 192.443 33.736 191.483 33.32C190.363 32.84 189.307 32.296 188.315 31.688L189.467 28.52C190.587 29.096 191.675 29.592 192.731 30.008C193.659 30.392 194.635 30.744 195.659 31.064C196.683 31.352 197.595 31.496 198.395 31.496C199.227 31.496 200.011 31.336 200.747 31.016C201.483 30.664 202.107 30.2 202.619 29.624C203.163 29.048 203.579 28.376 203.867 27.608C204.187 26.84 204.347 26.008 204.347 25.112C204.347 24.216 204.139 23.464 203.723 22.856C203.307 22.248 202.763 21.752 202.091 21.368C201.451 20.952 200.731 20.632 199.931 20.408C199.163 20.184 198.411 20.008 197.675 19.88C196.459 19.688 195.323 19.352 194.267 18.872C193.211 18.36 192.283 17.72 191.483 16.952C190.715 16.184 190.091 15.288 189.611 14.264C189.163 13.208 188.939 12.024 188.939 10.712C188.939 9.368 189.179 8.104 189.659 6.92C190.139 5.736 190.795 4.712 191.627 3.848C192.459 2.952 193.419 2.248 194.507 1.736C195.627 1.192 196.811 0.919998 198.059 0.919998C198.827 0.919998 199.627 1.016 200.459 1.208C201.291 1.368 202.075 1.56 202.811 1.784C203.643 2.04 204.475 2.328 205.307 2.648L204.251 5.912C203.515 5.624 202.779 5.368 202.043 5.144C201.403 4.952 200.715 4.776 199.979 4.616C199.275 4.424 198.603 4.328 197.963 4.328C197.163 4.328 196.411 4.504 195.707 4.856C195.003 5.208 194.395 5.672 193.883 6.248C193.371 6.824 192.971 7.496 192.683 8.264C192.395 9 192.251 9.768 192.251 10.568C192.251 11.496 192.443 12.312 192.827 13.016C193.211 13.688 193.691 14.264 194.267 14.744C194.875 15.224 195.531 15.608 196.235 15.896C196.939 16.184 197.611 16.392 198.251 16.52C199.563 16.744 200.795 17.064 201.947 17.48C203.099 17.896 204.091 18.44 204.923 19.112C205.787 19.784 206.459 20.6 206.939 21.56C207.451 22.52 207.707 23.672 207.707 25.016Z" fill="white"/>
</svg>
