<svg width="237" height="256" viewBox="0 0 237 256" fill="none" xmlns="http://www.w3.org/2000/svg">
<path fill-rule="evenodd" clip-rule="evenodd" d="M109.303 0.686963C99.2072 1.90787 96.1581 2.41215 90.63 3.77625C81.7307 5.97302 75.5872 8.24138 66.7002 12.6133C62.4641 14.6971 58.4323 16.7408 57.7403 17.1556C55.7528 18.3456 49.2465 22.712 48.2108 23.5508C29.688 38.5467 20.896 49.3083 12.091 67.762C10.222 71.679 8.6931 75.0769 8.6931 75.3133C8.6931 75.5497 8.28758 76.6181 7.79193 77.6878C6.04267 81.4623 2.56328 91.7153 3.15522 91.3498C3.48544 91.1455 3.75517 90.5326 3.75517 89.9864C3.75517 89.4407 3.89899 89.1383 4.0749 89.3136C4.2502 89.4895 3.94281 91.6881 3.391 94.2003C2.61574 97.7315 2.38612 102.267 2.37871 114.198C2.37378 122.685 2.15342 128.935 1.88924 128.086C1.42446 126.591 1.40904 126.601 1.40657 128.395C1.40472 129.413 1.75715 133.024 2.18984 136.419C2.90522 142.032 2.99041 142.284 3.12806 139.197L3.2799 135.802L3.76628 138.271C4.03416 139.629 4.61252 144.034 5.052 148.061C5.49148 152.087 6.02662 154.883 6.2408 154.272C6.45437 153.662 6.513 159.117 6.3698 166.394C6.08957 180.649 6.8136 197.603 7.46171 191.971L7.81723 188.884L8.28449 192.588C8.54188 194.625 9.02703 197.497 9.36342 198.972C10.0794 202.113 9.64489 203.99 8.18882 204.049C7.38888 204.081 7.45984 204.24 8.49804 204.742C9.24738 205.104 10.8368 205.208 12.0756 204.976C14.7476 204.475 15.4828 202.987 15.4828 198.083V194.708L22.9236 203.069C27.0165 207.668 31.0144 211.856 31.8082 212.376C33.9901 213.806 37.0313 214.042 40.6847 213.066C43.8728 212.214 44.0191 212.23 45.3992 213.611C48.2576 216.469 57.191 216.475 62.0598 213.621C63.601 212.718 64.8621 211.824 64.8621 211.635C64.8621 211.447 63.8547 211.886 62.6239 212.612C59.1575 214.657 59.3476 213.562 63.0931 209.905C66.2465 206.826 66.578 206.228 67.5335 201.88C68.1007 199.296 68.5982 196.287 68.6384 195.194L68.7118 193.205L69.2161 195.057C69.8913 197.537 69.3253 181.913 68.2168 167.475C67.7298 161.133 67.2915 155.161 67.2434 154.205C67.1749 152.851 67.0687 153.012 66.7619 154.936C66.4009 157.196 66.328 157.013 65.9027 152.776C65.6466 150.23 65.0262 144.397 64.5238 139.814C61.358 110.934 60.4722 107.438 55.5022 104.209C53.1228 102.664 52.2673 102.471 47.7923 102.471C45.0245 102.471 42.8883 102.262 43.0457 102.008C43.2024 101.753 43.8543 101.545 44.4931 101.545C45.1319 101.545 45.8239 101.271 46.0306 100.937C46.6084 100.002 42.6562 100.911 40.1724 102.285C37.4973 103.765 35.2808 106.483 36.7486 106.483C37.2738 106.483 37.7034 106.877 37.7034 107.359C37.7034 108.04 37.2572 108.122 35.6974 107.727C34.5938 107.447 32.0711 107.071 30.0904 106.89L26.4894 106.561L22.9026 110.071C19.3103 113.585 13.7292 121.364 12.0855 125.147L11.2102 127.16L11.0985 123.148C11.001 119.641 10.938 119.447 10.5991 121.605C10.2695 123.707 10.0844 123.066 9.35169 117.284C7.34442 101.446 9.47577 87.6606 15.5155 77.4169C16.4981 75.7503 17.1993 74.3862 17.074 74.3862C16.666 74.3862 23.3439 64.3326 27.0159 59.4181C28.9818 56.7874 30.941 54.6345 31.3693 54.6345C32.2976 54.6345 32.3822 53.8808 31.5471 53.0457C31.1576 52.6562 32.1137 51.1489 34.2697 48.7559C37.7843 44.8549 37.6769 44.8475 38.8836 49.0793C39.4774 51.1619 39.4959 51.1224 39.4083 47.9788C39.3194 44.8129 39.4151 44.6185 42.6766 41.3224C44.5246 39.4553 46.5627 37.6276 47.2065 37.261C48.2286 36.6789 48.3323 36.7647 48.0268 37.9344C47.733 39.0572 47.8231 39.1522 48.5817 38.5226C49.0798 38.1091 49.3378 37.3813 49.1551 36.9054C48.7632 35.8851 51.5648 33.1761 55.0201 31.2342L57.4552 29.8658L57.428 31.9114C57.4132 33.0366 57.1601 35.2068 56.8645 36.7345C56.5694 38.2622 56.4367 39.6219 56.5694 39.7559C56.7021 39.8898 59.247 39.1392 62.2252 38.0881C65.2034 37.0369 69.858 35.6197 72.5689 34.9383C75.2799 34.2569 77.5951 33.4088 77.7143 33.0526C77.8328 32.6971 78.1593 32.5483 78.4401 32.7218C78.9345 33.0273 95.4568 30.7942 96.2537 30.3139C96.4716 30.1825 100.713 29.7356 105.68 29.3214C128.08 27.4518 150.394 33.3792 169.173 46.1869C178.981 52.8766 187.646 60.6476 197.514 71.6086L201.404 75.9293L198.86 72.2259C194.141 65.3547 179.504 51.3489 171.182 45.7413C168.815 44.1463 167.434 42.781 169.33 43.9111C170.554 44.6401 180.786 51.9316 182.447 53.2574C186.999 56.893 196.67 66.7614 200.038 71.2086C200.887 72.3296 202.941 74.9609 204.602 77.057C206.264 79.1525 209.101 83.1165 210.906 85.865C212.712 88.6142 214.616 91.2171 215.138 91.6504C215.66 92.0831 216.086 92.8855 216.086 93.4336C216.086 93.9818 217.085 92.9466 218.306 91.1338C219.527 89.321 220.745 88.0748 221.014 88.3642C222.002 89.4333 223.452 95.6607 222.852 96.2606C222.525 96.5871 222.267 97.7013 222.277 98.7364C222.293 100.319 222.397 100.446 222.928 99.5338C223.276 98.937 223.365 98.1037 223.127 97.6821C222.832 97.1587 222.902 97.1118 223.349 97.5327C223.709 97.8722 224.418 100.789 224.926 104.014C225.839 109.816 225.834 109.897 224.473 111.729C222.139 114.87 221.982 115.512 224.009 113.626C225.076 112.632 226.052 111.938 226.177 112.083C226.853 112.865 227.03 116.928 226.398 117.139C225.866 117.317 225.863 117.945 226.385 119.645C226.958 121.513 226.927 121.914 226.213 121.914C225.736 121.914 225.345 122.33 225.345 122.84C225.345 123.349 225.562 123.766 225.828 123.766C227.041 123.766 224.902 144.478 222.825 152.845C221.32 158.904 218.696 165.32 215.586 170.538C212.629 175.497 206.368 182.574 205.443 182.002C205.081 181.779 204.96 181.879 205.175 182.226C205.389 182.572 204.951 183.379 204.201 184.018C202.854 185.166 202.848 185.166 203.728 183.947C204.81 182.45 201.824 185.01 196.173 190.428C193.87 192.634 191.736 194.525 191.429 194.63C191.123 194.735 191.264 193.346 191.744 191.544C192.716 187.892 192.919 170.621 192.014 168.516L191.484 167.281L191.384 168.516C191.311 169.425 191.135 169.263 190.715 167.898C190.128 165.995 186.085 162.596 182.729 161.185C181.392 160.623 181.094 160.239 181.6 159.733C181.979 159.354 182.647 159.182 183.084 159.35C184.074 159.73 183.311 155.787 182.078 154.147C179.965 151.338 176.969 148.582 176.305 148.837C175.898 148.993 174.279 148.571 172.708 147.897C167.283 145.571 163.644 147.771 148.961 162.248C142.765 168.357 137.697 173.118 137.697 172.827C137.697 172.536 138.322 171.595 139.085 170.734C140.236 169.438 140.263 169.325 139.244 170.077C137.559 171.32 135.499 173.934 135.706 174.568C135.799 174.854 135.616 174.928 135.3 174.732C134.82 174.436 130.943 178.379 123.094 187.146C121.519 188.905 119.211 191.736 114.883 197.217C113.141 199.424 111.284 201.751 110.756 202.389C108.392 205.247 101.706 215.662 99.9646 219.198C98.8585 221.445 97.961 224.346 97.8444 226.05C97.6715 228.568 97.7079 228.685 98.0906 226.845L98.5406 224.684L98.9214 226.845C99.1307 228.033 100.582 231.169 102.146 233.812C104.54 237.859 104.769 238.505 103.598 237.895C102.259 237.198 102.266 237.236 103.748 238.856C105.731 241.022 107.702 242.018 111.137 242.589C113.069 242.91 114.921 243.883 117.31 245.832L120.722 248.616L127.512 248.252C133.42 247.936 136.123 247.575 142.423 246.262C143.749 245.985 143.75 245.995 142.753 249.113C141.855 251.921 141.849 252.411 142.688 253.894C143.553 255.424 143.919 255.545 147.603 255.521C150.638 255.502 152.465 255.084 155.288 253.764C159.346 251.866 165.477 248.275 168.018 246.308C168.909 245.618 170.42 244.498 171.376 243.819C177.398 239.543 192.146 225.286 193.433 222.498C193.661 222.003 194.303 220.904 194.857 220.055C195.899 218.463 195.702 218.667 189.242 225.876C187.547 227.767 185.811 229.314 185.384 229.314C184.956 229.314 184.607 229.571 184.607 229.886C184.607 230.544 180.847 232.549 180.418 232.12C180.261 231.963 180.861 230.969 181.753 229.91C182.811 228.652 183.372 227.252 183.372 225.871C183.372 224.709 183.65 223.759 183.99 223.759C184.329 223.759 184.607 224.291 184.607 224.942C184.607 225.853 185.318 225.411 187.693 223.023C189.391 221.317 190.779 219.655 190.779 219.33C190.779 218.661 193.927 214.301 194.637 213.986C194.892 213.872 195.1 213.386 195.1 212.906C195.1 212.424 195.318 212.031 195.584 212.031C195.851 212.031 196.597 211.129 197.244 210.025C198.259 208.295 201.372 204.257 205.575 199.223C206.212 198.459 206.547 197.836 206.318 197.837C205.679 197.84 201.769 200.27 200.013 201.755C199.15 202.484 200.123 201.441 202.174 199.437C205.135 196.543 206.323 195.781 207.948 195.734C209.415 195.691 209.747 195.516 209.12 195.117C208.134 194.49 207.701 195.314 214.986 183.947C217.379 180.212 220.654 174.707 222.262 171.713C223.87 168.719 225.43 166.278 225.728 166.287C226.462 166.311 227.922 161.972 227.527 160.942C227.353 160.489 227.444 160.263 227.73 160.44C228.015 160.616 229.004 158.2 229.927 155.071C230.851 151.941 231.841 148.794 232.128 148.076C232.414 147.359 233.422 143.054 234.368 138.509C235.907 131.112 236.084 129.018 236.062 118.519C236.042 109.397 235.737 105.009 234.686 98.7672C233.333 90.7394 230.05 78.2989 228.993 77.1947C228.683 76.8718 228.431 76.2638 228.431 75.8423C228.431 75.4213 227.32 72.6826 225.962 69.7569C224.604 66.8312 223.493 64.3184 223.493 64.1739C223.493 63.8234 217.157 53.1784 216.713 52.7828C216.522 52.613 215.839 51.6483 215.196 50.6385C213.758 48.3849 214.027 48.7306 208.457 41.981C203.778 36.3111 195.151 27.9635 190.162 24.2779C187.752 22.4972 184.477 20.2949 178.434 16.3908C177.586 15.8427 173.975 13.9737 170.41 12.2368C160.149 7.23836 147.061 3.15284 136.153 1.54308C131.49 0.854853 112.835 0.259832 109.303 0.686963ZM129.147 3.41085C132.763 3.75342 138.318 4.60645 141.492 5.3064C144.666 6.00635 148.375 6.82235 149.733 7.11986C151.091 7.41675 153.99 8.36915 156.177 9.23514C158.362 10.1017 160.519 10.8103 160.969 10.8103C161.821 10.8103 175.874 17.8852 179.72 20.2517C184.459 23.1663 198.081 34.6198 200.908 38.0677C201.838 39.2016 203.862 41.5706 205.406 43.3322C208.97 47.3979 215.469 56.9207 215.469 58.0768C215.469 58.5595 215.758 58.9552 216.113 58.9552C216.929 58.9552 226.372 78.9501 226.722 81.4203C227.023 83.5387 225.416 83.159 224.467 80.887C223.213 77.8866 219.76 73.1517 218.825 73.1517C218.098 73.1517 217.033 71.445 217.211 70.5642C217.258 70.3291 216.66 69.6347 215.881 69.0211C215.102 68.407 213.494 66.4935 212.309 64.769C209.666 60.9242 201.649 50.9446 198.342 47.3819C197.002 45.9388 196.003 44.7586 196.121 44.7586C196.238 44.7586 195.223 43.6476 193.866 42.2897C192.508 40.9317 191.167 39.8207 190.887 39.8207C190.606 39.8207 189.704 39.096 188.881 38.2109C188.058 37.3252 185.579 35.3327 183.372 33.7822C181.166 32.2323 178.805 30.475 178.126 29.8782C177.447 29.2813 173.936 27.2722 170.323 25.413C165.285 22.82 163.919 21.8596 164.46 21.2899C165.001 20.7183 164.844 20.6442 163.774 20.967C162.836 21.2504 161.804 20.9726 160.593 20.1109C159.607 19.4085 158.344 18.8345 157.785 18.8345C157.227 18.8345 155.908 18.3888 154.855 17.8444C147.067 13.8169 128.855 10.7134 113.368 10.7745C109.605 10.7894 106.109 10.769 105.6 10.7282C105.091 10.6881 103.841 10.8752 102.822 11.1437C101.183 11.5763 101.063 11.5208 101.771 10.6597C102.489 9.78819 102.169 9.71906 98.685 9.99002C96.5475 10.1567 94.3816 10.4554 93.8724 10.6542C93.3632 10.8535 91.9744 11.0733 90.7862 11.143C89.598 11.2128 88.0913 11.4924 87.4383 11.7646C86.4859 12.1615 86.3297 12.0553 86.6476 11.2264C86.8655 10.6579 86.9001 10.1931 86.7241 10.1931C86.0316 10.1931 82.4269 12.2565 81.9905 12.9028C81.6689 13.3787 81.3424 13.3052 80.9196 12.6621C80.5746 12.1368 80.3079 12.0461 80.3024 12.4528C80.2974 12.8466 78.9741 13.77 77.3612 14.5045C75.7484 15.239 71.9295 17.0371 68.8741 18.4999C65.8188 19.9634 62.2814 21.4905 61.013 21.8941C59.7445 22.2978 58.5477 22.8854 58.3532 23.2002C57.8625 23.994 55.6034 23.9212 55.6034 23.1113C55.6034 21.9676 57.1743 20.8072 61.7104 18.5993C64.1288 17.4222 67.0076 15.9069 68.1081 15.231C70.0562 14.0354 76.7816 11.2924 85.5396 8.12287C97.3388 3.85218 114.383 2.01033 129.147 3.41085ZM106.834 9.61227C106.834 9.97151 107.112 10.0943 107.452 9.88448C107.791 9.67462 108.069 9.38081 108.069 9.23082C108.069 9.08083 107.791 8.95862 107.452 8.95862C107.112 8.95862 106.834 9.25304 106.834 9.61227ZM97.2672 11.4276C97.0574 11.7671 96.608 12.0448 96.2685 12.0448C95.9291 12.0448 95.8229 11.7671 96.0328 11.4276C96.2426 11.0881 96.692 10.8103 97.0314 10.8103C97.3709 10.8103 97.4771 11.0881 97.2672 11.4276ZM54.8627 23.2786C55.9812 24.3971 55.8398 24.6298 52.6715 26.8796C47.0997 30.8361 39.6718 37.39 35.7196 41.8378C24.8488 54.0697 19.3294 63.3993 10.8905 83.8078C9.3196 87.6063 8.07586 89.5074 8.07586 88.1093C8.07586 87.8093 8.92456 84.6682 9.96215 81.1289C10.9997 77.5903 12.0626 73.7227 12.3237 72.5345C12.5854 71.3463 13.1064 69.8186 13.4804 69.1397C13.8551 68.4607 15.2575 65.6615 16.5975 62.9191C20.5417 54.8437 24.0174 49.7002 25.2389 50.1286C26.011 50.3996 26.1116 50.307 25.624 49.7749C24.8673 48.9497 28.3683 44.7944 37.3214 35.8919C43.0457 30.2004 52.3043 22.5379 53.4573 22.5379C53.8227 22.5379 54.4554 22.8712 54.8627 23.2786ZM75.3552 32.6564C75.3552 32.7897 74.9243 33.0644 74.3972 33.2668C73.8479 33.4773 73.6003 33.3736 73.8164 33.0242C74.1787 32.4372 75.3552 32.1564 75.3552 32.6564ZM69.7099 34.5241C69.0266 35.0908 65.4793 35.379 65.4793 34.8673C65.4793 34.5365 66.157 34.2655 66.986 34.2655C67.815 34.2655 68.6988 33.9322 68.9507 33.5242C69.3019 32.9557 69.4691 32.965 69.6685 33.5631C69.8117 33.9921 69.8302 34.4241 69.7099 34.5241ZM72.269 33.6483C72.269 33.9878 71.9912 34.2655 71.6517 34.2655C71.3122 34.2655 71.0345 33.9878 71.0345 33.6483C71.0345 33.3088 71.3122 33.031 71.6517 33.031C71.9912 33.031 72.269 33.3088 72.269 33.6483ZM47.3108 45.311C47.1225 45.6153 47.3701 46.0178 47.8601 46.2054C48.4545 46.4338 48.6366 46.2499 48.4077 45.653C48.0095 44.616 47.7836 44.5457 47.3108 45.311ZM38.3695 52.5254C38.3991 53.2444 38.5454 53.3907 38.7423 52.8988C38.9207 52.4531 38.8984 51.9205 38.6935 51.7155C38.4886 51.5106 38.3429 51.8748 38.3695 52.5254ZM215.469 66.9793C215.469 67.3188 215.763 67.5965 216.123 67.5965C216.482 67.5965 216.605 67.3188 216.395 66.9793C216.185 66.6398 215.891 66.3621 215.741 66.3621C215.591 66.3621 215.469 66.6398 215.469 66.9793ZM204.094 80.0074C205.767 82.1776 207.302 84.0923 207.504 84.2621C207.706 84.4318 209.028 86.2749 210.442 88.3581C212.791 91.8196 216.008 95.386 214.542 92.9034C213.15 90.5468 202.316 76.5194 201.722 76.304C201.353 76.1706 202.421 77.8372 204.094 80.0074ZM229.551 86.0366C230.48 89.2222 232.134 97.5568 232.134 99.0499C232.134 99.7801 231.73 100.31 231.172 100.31C230.643 100.31 230.374 100.576 230.575 100.9C230.775 101.225 231.309 101.349 231.76 101.176C232.938 100.724 233.354 104.064 233.362 114.044C233.368 121.532 233.249 122.531 232.347 122.531C231.407 122.531 231.405 122.619 232.32 123.63C233.712 125.167 232.99 130.545 229.864 141.927C229.033 144.957 227.814 148.119 227.157 148.955C225.719 150.782 225.658 149.941 226.895 145.369C231.135 129.703 231.476 110.349 227.809 93.5207C225.59 83.335 225.611 83.7991 227.363 83.7991C228.597 83.7991 229.027 84.2386 229.551 86.0366ZM46.9621 104.091C46.9621 104.388 46.7071 104.631 46.3954 104.631C46.0837 104.631 45.3893 104.8 44.8523 105.006C44.2326 105.243 43.8759 105.046 43.8759 104.466C43.8759 103.901 44.4672 103.551 45.419 103.551C46.2677 103.551 46.9621 103.794 46.9621 104.091ZM42.8648 104.94C42.6692 105.449 42.8333 105.866 43.229 105.866C43.6246 105.866 43.7771 106.143 43.5672 106.483C43.3574 106.822 42.908 107.1 42.5685 107.1C42.2291 107.1 42.1519 106.775 42.3976 106.378C42.6914 105.903 42.5161 105.782 41.8865 106.023C41.1754 106.296 41.0094 106.085 41.2402 105.202C41.4112 104.548 41.9266 104.014 42.3852 104.014C42.8735 104.014 43.0722 104.398 42.8648 104.94ZM47.5793 105.693C46.7306 105.846 45.7584 106.241 45.419 106.572C45.0147 106.965 45.1616 107.036 45.8442 106.777C46.4177 106.558 47.3898 106.672 48.0046 107.03C48.6194 107.387 48.7755 107.688 48.3509 107.699C47.1522 107.728 47.4423 108.946 48.6595 108.995C49.5829 109.032 49.5607 109.115 48.5052 109.569C47.367 110.058 47.3917 110.106 48.8138 110.186C50.2359 110.266 50.2606 110.315 49.1224 110.803C47.9824 111.294 48.0058 111.342 49.431 111.439L50.9741 111.544L49.431 111.98L47.8879 112.416L49.3779 112.813C50.6433 113.15 50.7488 113.355 50.0742 114.167C49.41 114.967 49.4502 115.124 50.318 115.124C50.8883 115.124 51.1828 115.404 50.9717 115.746C50.76 116.088 51.0198 116.533 51.5488 116.736C52.0778 116.939 52.3747 117.325 52.2086 117.593C52.0426 117.862 52.3685 118.258 52.9326 118.475C53.6962 118.768 53.7795 119.047 53.2592 119.567C52.7388 120.087 52.7827 120.437 53.4308 120.935C54.6091 121.842 55.4899 125.384 54.3634 124.688C53.9159 124.412 53.6974 124.439 53.8696 124.75C55.1547 127.073 55.6596 129.321 54.8967 129.321C54.5677 129.321 54.7313 129.938 55.2596 130.693C55.788 131.447 56.2164 132.349 56.2114 132.699C56.2059 133.048 55.9324 132.916 55.6034 132.407C55.2442 131.851 55.0016 131.774 54.9955 132.216C54.9905 132.62 55.2775 133.131 55.6331 133.351C55.9886 133.571 56.2343 134.212 56.1793 134.776C56.1238 135.34 56.1318 135.941 56.1966 136.11C56.4015 136.644 56.9157 138.848 57.0632 139.825C57.141 140.34 57.4249 141.117 57.6934 141.551C57.9619 141.986 57.9761 142.815 57.7255 143.393C56.9478 145.182 56.9194 145.986 57.6329 145.986C58.1064 145.986 58.0891 146.216 57.5786 146.727C56.7484 147.557 56.5503 149.94 57.3521 149.445C57.6354 149.27 57.8669 149.504 57.8669 149.967C57.8669 150.445 57.4453 150.68 56.8892 150.514C56.3515 150.353 56.6065 150.648 57.4552 151.168C58.4174 151.759 58.6495 152.127 58.0724 152.146C57.2496 152.174 57.2496 152.244 58.0724 152.776C58.5816 153.105 58.7205 153.378 58.381 153.384C58.0415 153.389 57.7638 154.087 57.7638 154.936C57.7638 155.785 58.0243 156.479 58.3434 156.479C58.6619 156.479 58.2681 157.089 57.4688 157.834C56.575 158.666 56.2935 159.281 56.7385 159.43C57.1373 159.562 57.2768 159.972 57.049 160.34C56.7836 160.77 57.0145 160.864 57.6947 160.603C58.3236 160.362 58.6008 160.444 58.3767 160.807C58.1693 161.143 57.391 161.422 56.6472 161.427C55.8226 161.433 55.5757 161.615 56.0139 161.894C57.2811 162.7 55.3886 165.318 53.4783 165.401C52.0432 165.464 51.9543 165.373 52.8271 164.735C53.7622 164.051 53.761 163.953 52.8135 163.423C52.2506 163.107 51.8309 162.597 51.8809 162.288C51.9315 161.979 51.3315 161.545 50.5476 161.325L49.1224 160.923L50.6186 160.862L52.1154 160.8L50.7266 159.322C49.7779 158.312 49.5613 157.706 50.0421 157.409C50.5384 157.102 50.4328 156.628 49.6841 155.801C48.741 154.758 48.7323 154.628 49.6076 154.628C50.1495 154.628 50.7624 154.353 50.9698 154.017C51.1859 153.668 50.9383 153.564 50.389 153.775C49.5434 154.099 49.3033 153.73 49.4835 152.382C49.5125 152.165 49.2002 151.78 48.7891 151.527C48.3786 151.272 47.9645 150.354 47.8688 149.487C47.7737 148.619 47.488 147.572 47.2337 147.161C46.9392 146.685 47.0306 146.573 47.4836 146.853C48.4941 147.477 48.3731 145.895 47.2923 144.353C46.7954 143.643 46.5639 142.887 46.7781 142.672C46.9923 142.458 46.8139 142.283 46.3819 142.283C45.9245 142.283 45.7492 141.882 45.9634 141.325C46.1652 140.798 46.0794 140.522 45.7726 140.712C45.4653 140.901 45.285 139.944 45.3721 138.584C45.4585 137.223 45.3622 136.11 45.1572 136.11C44.4258 136.11 44.8962 128.779 45.6893 127.824C46.3744 126.998 46.322 126.85 45.34 126.838C44.3406 126.826 44.3925 126.663 45.7276 125.628C47.1621 124.516 47.1762 124.456 45.9288 124.776C44.7351 125.081 44.6005 124.892 44.7091 123.054C44.7764 121.917 45.0789 120.593 45.3807 120.111C45.7973 119.447 45.6782 119.332 44.8887 119.635C44.003 119.974 43.9487 119.845 44.5264 118.765C44.8999 118.068 45.0573 117.11 44.8764 116.639C44.6949 116.167 44.8295 115.606 45.1745 115.393C45.5486 115.162 45.3504 114.671 44.6844 114.177C43.6308 113.395 43.6277 113.287 44.6202 112.279C45.614 111.271 45.5998 111.146 44.3715 110.081C43.6555 109.46 42.8593 108.952 42.6025 108.952C42.3457 108.952 42.8667 108.118 43.7604 107.1C44.9486 105.746 45.8868 105.271 47.254 105.332C48.9298 105.408 48.9632 105.445 47.5793 105.693ZM37.9182 110.473C38.109 110.97 38.4509 113.427 38.6781 115.933C39.0132 119.634 38.9213 120.553 38.1867 120.835C37.6899 121.026 37.001 121 36.6566 120.776C36.1498 120.448 34.6172 112.471 34.6172 110.161C34.6172 109.206 37.538 109.483 37.9182 110.473ZM33.5834 111.788C33.4007 112.265 32.6556 112.691 31.9279 112.735C31.2002 112.779 29.841 112.861 28.9078 112.917C27.0122 113.033 26.9838 112.998 27.7714 111.526C28.5109 110.144 34.1173 110.397 33.5834 111.788ZM30.6052 115.124C30.815 115.464 30.6922 115.741 30.333 115.741C29.9737 115.741 29.6793 115.464 29.6793 115.124C29.6793 114.785 29.8015 114.507 29.9515 114.507C30.1015 114.507 30.3953 114.785 30.6052 115.124ZM53.1345 122.186C53.1345 122.675 53.3863 123.231 53.6943 123.421C54.0017 123.612 54.1085 123.211 53.9307 122.532C53.5536 121.09 53.1345 120.908 53.1345 122.186ZM36.7159 125.283C36.9251 126.117 37.7528 127.507 38.5546 128.372C40.3298 130.288 40.5928 131.775 41.4773 144.878C42.1334 154.608 41.8995 160.8 40.8755 160.8C40.6242 160.8 40.086 160.467 39.6786 160.059C39.1027 159.483 38.9379 159.491 38.9379 160.096C38.9379 160.523 38.6836 160.716 38.3731 160.524C38.0627 160.332 37.6683 160.524 37.4961 160.951C37.3078 161.418 37.1646 161.297 37.135 160.646C37.0924 159.707 35.7277 159.217 33.8833 159.48C33.6494 159.513 33.313 159.06 33.1365 158.473C32.7124 157.066 31.0237 138.626 30.636 131.172L30.3311 125.309L32.6285 124.585C35.9443 123.54 36.293 123.599 36.7159 125.283ZM64.388 126.852C64.388 128.04 64.5152 128.526 64.6701 127.932C64.8256 127.338 64.8256 126.365 64.6701 125.772C64.5152 125.178 64.388 125.664 64.388 126.852ZM0.100488 129.681C0.130116 130.4 0.276404 130.546 0.473304 130.054C0.651687 129.608 0.62946 129.076 0.424536 128.871C0.219612 128.666 0.0739467 129.03 0.100488 129.681ZM10.5448 134.12C10.5448 134.384 10.8139 136.815 11.1435 139.521C12.0546 147.012 12.9459 162.469 12.5533 163.971C12.2317 165.2 12.1453 165.221 11.4312 164.245C11.0053 163.663 10.4275 163.222 10.1473 163.265C9.86647 163.309 9.44428 162.563 9.20849 161.609C8.561 158.987 6.8389 141.23 6.84013 137.191C6.84137 133.659 6.85063 133.641 8.6931 133.641C9.71155 133.641 10.5448 133.857 10.5448 134.12ZM65.6349 142.591C65.6417 143.949 65.7682 144.432 65.9157 143.664C66.0632 142.896 66.0577 141.785 65.9034 141.195C65.749 140.605 65.6281 141.233 65.6349 142.591ZM3.28112 145.369C3.28112 146.557 3.40828 147.043 3.5632 146.449C3.71875 145.855 3.71875 144.883 3.5632 144.289C3.40828 143.695 3.28112 144.181 3.28112 145.369ZM1.95221 147.581C1.98184 148.3 2.12813 148.446 2.32503 147.954C2.50341 147.508 2.48118 146.976 2.27626 146.771C2.07134 146.566 1.92567 146.93 1.95221 147.581ZM66.2169 149.998C66.2293 151.017 66.3675 151.359 66.5243 150.758C66.6811 150.158 66.6706 149.324 66.5015 148.906C66.3323 148.488 66.2046 148.98 66.2169 149.998ZM3.87553 150.616C3.88788 151.634 4.02613 151.976 4.18291 151.375C4.33969 150.775 4.32921 149.941 4.16008 149.524C3.99096 149.106 3.86319 149.597 3.87553 150.616ZM2.8145 160.8C2.9256 166.062 3.30458 171.062 3.65579 171.91C4.22673 173.291 4.31192 173.324 4.46006 172.219C4.55141 171.54 4.78966 174.734 4.98965 179.317L5.3532 187.65L5.47974 178.491C5.57357 171.757 5.28655 167.425 4.39648 162.134C3.7311 158.175 3.05707 154.103 2.89906 153.084C2.74104 152.066 2.70278 155.538 2.8145 160.8ZM7.26912 161.251C7.11234 161.852 6.97409 161.51 6.96174 160.491C6.9494 159.473 7.07716 158.982 7.24629 159.399C7.41541 159.817 7.4259 160.651 7.26912 161.251ZM67.1557 164.349C67.0144 165.282 66.899 164.519 66.899 162.652C66.899 160.785 67.0144 160.021 67.1557 160.954C67.2971 161.888 67.2971 163.416 67.1557 164.349ZM159.3 162.96C159.728 163.477 159.796 163.886 159.451 163.886C159.112 163.886 158.488 163.47 158.066 162.96C157.637 162.444 157.57 162.034 157.914 162.034C158.254 162.034 158.877 162.451 159.3 162.96ZM159.872 165.757C160.459 166.646 160.538 167.041 160.072 166.755C159.535 166.427 159.3 166.744 159.3 167.796C159.3 168.628 158.865 169.476 158.335 169.68C157.804 169.883 157.543 170.33 157.754 170.672C157.965 171.013 157.828 171.293 157.448 171.293C157.069 171.293 156.928 171.568 157.135 171.904C157.359 172.266 157.082 172.349 156.453 172.107C155.782 171.85 155.543 171.942 155.8 172.358C156.024 172.72 155.774 173.181 155.245 173.384C154.716 173.587 154.456 174.033 154.668 174.375C154.879 174.717 154.758 174.997 154.398 174.997C154.039 174.997 153.745 175.43 153.745 175.959C153.745 176.488 153.499 176.769 153.199 176.584C152.899 176.398 152.312 177.073 151.893 178.083C151.475 179.093 150.844 179.741 150.491 179.523C150.139 179.305 150.033 179.422 150.257 179.783C150.79 180.647 150.068 182.493 149.367 182.059C149.067 181.874 148.96 182.084 149.13 182.526C149.311 182.997 148.668 183.671 147.579 184.153C146.557 184.606 145.721 185.351 145.721 185.808C145.721 186.266 145.161 186.819 144.477 187.036C143.793 187.252 143.367 187.646 143.529 187.909C143.692 188.172 143.012 189.167 142.017 190.119C141.023 191.071 140.382 192.129 140.591 192.469C140.801 192.809 140.675 192.903 140.311 192.677C139.946 192.452 139.275 192.64 138.821 193.095C138.366 193.55 137.678 193.816 137.292 193.687C136.905 193.559 136.63 193.953 136.68 194.564C136.748 195.393 136.38 195.639 135.228 195.535C134.379 195.459 134.032 195.552 134.456 195.741C135.794 196.338 135.295 196.909 133.434 196.909C132.449 196.909 131.751 196.731 131.885 196.515C132.019 196.299 131.709 195.775 131.197 195.35C130.532 194.798 130.373 193.94 130.64 192.348C131.258 188.669 131.564 187.959 132.528 187.959C133.035 187.959 133.277 187.681 133.067 187.341C132.857 187.002 132.996 186.724 133.376 186.724C133.755 186.724 133.894 186.446 133.684 186.107C133.475 185.767 133.534 185.49 133.817 185.49C134.099 185.49 134.863 184.498 135.516 183.287C136.168 182.075 137.204 180.815 137.817 180.488C138.43 180.159 138.931 179.505 138.931 179.035C138.931 178.02 150.483 166.16 152.047 165.568C152.641 165.344 153.128 164.873 153.128 164.523C153.128 164.173 153.978 163.886 155.016 163.886C156.367 163.886 156.769 163.667 156.431 163.115C155.563 161.699 158.87 164.238 159.872 165.757ZM181.186 163.226C181.381 163.542 181.307 163.945 181.021 164.123C180.228 164.613 177.785 163.821 178.169 163.199C178.615 162.476 180.734 162.496 181.186 163.226ZM57.6786 164.195C57.4829 164.704 57.041 165.121 56.6966 165.121C56.3349 165.121 56.3947 164.729 56.8379 164.195C57.2607 163.686 57.7027 163.269 57.82 163.269C57.9372 163.269 57.8737 163.686 57.6786 164.195ZM56.3207 166.401C55.5269 166.716 54.4628 166.741 53.956 166.457C53.3289 166.106 53.7894 165.924 55.3991 165.886C57.4515 165.837 57.5731 165.905 56.3207 166.401ZM54.9862 167.964C54.9862 168.098 54.0838 168.187 52.9802 168.164C51.3463 168.128 51.2031 168.03 52.2086 167.632C53.3394 167.184 54.9862 167.382 54.9862 167.964ZM55.6034 169.067C55.6034 169.2 55.1868 169.469 54.6776 169.665C54.1684 169.86 53.7517 169.751 53.7517 169.422C53.7517 169.093 54.1684 168.824 54.6776 168.824C55.1868 168.824 55.6034 168.933 55.6034 169.067ZM191.805 172.065C191.634 172.489 191.494 172.142 191.494 171.293C191.494 170.444 191.634 170.097 191.805 170.522C191.977 170.946 191.977 171.641 191.805 172.065ZM223.159 172.569C222.935 172.931 222.885 173.36 223.046 173.521C223.208 173.683 223.505 173.387 223.706 172.863C224.123 171.775 223.768 171.584 223.159 172.569ZM55.2948 173.145C55.085 173.484 54.6356 173.762 54.2961 173.762C53.9566 173.762 53.8505 173.484 54.0603 173.145C54.2702 172.805 54.7196 172.528 55.059 172.528C55.3985 172.528 55.5047 172.805 55.2948 173.145ZM41.2254 177.003C41.0779 177.767 40.9575 177.141 40.9575 175.614C40.9575 174.086 41.0779 173.461 41.2254 174.225C41.3723 174.989 41.3723 176.238 41.2254 177.003ZM55.4362 175.987C55.2313 176.192 54.6986 176.214 54.2535 176.035C53.761 175.838 53.9073 175.692 54.6263 175.663C55.2769 175.636 55.6411 175.782 55.4362 175.987ZM55.4362 177.838C55.2313 178.043 54.6986 178.065 54.2535 177.887C53.761 177.69 53.9073 177.544 54.6263 177.514C55.2769 177.488 55.6411 177.633 55.4362 177.838ZM68.3569 179.472C68.1859 179.896 68.0458 179.549 68.0458 178.7C68.0458 177.851 68.1859 177.504 68.3569 177.928C68.5285 178.353 68.5285 179.047 68.3569 179.472ZM167.288 178.978C166.303 179.972 166.638 181.515 168.249 183.387C169.097 184.374 169.792 185.322 169.793 185.495C169.793 185.934 157.309 200.348 155.661 201.812C154.918 202.472 153.315 203.353 152.1 203.771C150.084 204.464 149.769 204.408 148.488 203.127L147.085 201.724L145.397 203.512C143.771 205.234 142.028 205.604 141.612 204.316C141.36 203.537 154.332 187.78 159.737 182.299C163.232 178.755 164.08 178.198 165.833 178.287C167.115 178.352 167.654 178.609 167.288 178.978ZM131.524 194.364C131.524 194.492 132.011 194.978 132.604 195.445C133.583 196.212 133.605 196.19 132.838 195.211C132.031 194.183 131.524 193.856 131.524 194.364ZM130.907 196.909C130.907 197.418 130.798 197.834 130.664 197.834C130.531 197.834 130.262 197.418 130.066 196.909C129.871 196.399 129.98 195.983 130.309 195.983C130.638 195.983 130.907 196.399 130.907 196.909ZM151.08 200.819C152.154 201.893 153.19 202.772 153.383 202.772C154.003 202.772 151.625 200.233 150.356 199.538C149.649 199.152 149.957 199.697 151.08 200.819ZM6.00069 201.229C5.80564 201.739 5.9149 202.155 6.24327 202.155C6.57226 202.155 6.84137 201.739 6.84137 201.229C6.84137 200.72 6.73212 200.303 6.5988 200.303C6.46547 200.303 6.19636 200.72 6.00069 201.229ZM68.6859 202.464C68.6982 203.482 68.8365 203.824 68.9933 203.224C69.15 202.623 69.1396 201.79 68.9704 201.372C68.8013 200.954 68.6735 201.445 68.6859 202.464ZM188.31 201.468C188.31 202.163 178.702 212.521 171.456 219.638C167.557 223.466 165.766 224.851 165.426 224.301C164.779 223.253 167.745 219.816 178.278 209.408C186.112 201.666 188.31 199.926 188.31 201.468ZM44.6622 204.627C45.0931 207.842 44.6567 209.375 43.2018 209.756C42.1334 210.035 42.0241 209.696 42.0241 206.109C42.0241 202.659 42.171 202.155 43.1771 202.155C44.0561 202.155 44.4091 202.743 44.6622 204.627ZM197.569 203.577C197.569 203.68 196.528 204.722 195.254 205.892L192.94 208.019L195.067 205.704C197.047 203.55 197.569 203.106 197.569 203.577ZM148.138 205.495C148.907 206.314 149.441 207.471 149.326 208.067C149.08 209.334 147.572 210.035 147.572 208.882C147.572 208.451 146.988 207.476 146.273 206.715C145.559 205.955 145.158 205.035 145.384 204.67C145.998 203.675 146.597 203.854 148.138 205.495ZM144.518 209.905C145.746 211.211 145.8 211.406 144.833 211.035C143.958 210.698 143.792 210.791 144.171 211.405C144.51 211.952 144.439 212.074 143.954 211.775C143.557 211.529 143.372 211.101 143.544 210.824C143.715 210.547 143.39 209.94 142.821 209.478C141.92 208.745 141.837 208.772 142.179 209.685C142.46 210.435 142.317 210.636 141.677 210.39C140.578 209.969 140.518 209.155 141.554 208.736C142.842 208.216 142.984 208.273 144.518 209.905ZM142.66 211.753C143.316 212.544 143.276 212.889 142.427 213.737C141.469 214.696 141.331 214.696 140.373 213.737C139.524 212.889 139.484 212.544 140.14 211.753C140.577 211.227 141.144 210.797 141.4 210.797C141.656 210.797 142.223 211.227 142.66 211.753ZM139.857 218.203C140.067 218.543 139.961 218.821 139.621 218.821C139.282 218.821 138.832 218.543 138.622 218.203C138.413 217.864 138.519 217.586 138.858 217.586C139.198 217.586 139.647 217.864 139.857 218.203ZM128.785 229.172C128.578 229.38 127.929 229.047 127.343 228.434C126.324 227.367 126.341 227.35 127.719 228.057C128.512 228.464 128.992 228.966 128.785 229.172ZM128.207 232.836C127.824 233.22 124.78 231.029 124.754 230.352C124.743 230.074 125.584 230.452 126.622 231.191C127.66 231.93 128.373 232.67 128.207 232.836ZM117.818 239.035C117.423 239.969 116.734 241.14 116.288 241.636C115.576 242.428 115.354 242.418 114.489 241.554C113.585 240.649 113.591 240.432 114.56 238.953C115.207 237.965 116.184 237.338 117.077 237.338C118.431 237.338 118.484 237.46 117.818 239.035ZM155.617 247.744C151.621 253.238 149.97 254.687 151.806 251.088C152.875 248.994 157.722 243.51 158.506 243.51C158.611 243.51 157.311 245.416 155.617 247.744Z" fill="#080808"/>
</svg>
